<svg viewBox="0 0 740 680" fill="none" xmlns="http://www.w3.org/2000/svg">
    <path fill-rule="evenodd" clip-rule="evenodd" d="M558 191C587.271 191 611 167.271 611 138C611 108.729 587.271 85 558 85C528.729 85 505 108.729 505 138C505 167.271 528.729 191 558 191Z" fill="#F2F2F2"/>
    <path fill-rule="evenodd" clip-rule="evenodd" d="M558 99C559.657 99 561 97.6569 561 96C561 94.3431 559.657 93 558 93C556.343 93 555 94.3431 555 96C555 97.6569 556.343 99 558 99Z" fill="black" fill-opacity="0.1"/>
    <path fill-rule="evenodd" clip-rule="evenodd" d="M516 141C517.657 141 519 139.657 519 138C519 136.343 517.657 135 516 135C514.343 135 513 136.343 513 138C513 139.657 514.343 141 516 141Z" fill="black" fill-opacity="0.1"/>
    <path fill-rule="evenodd" clip-rule="evenodd" d="M600 141C601.657 141 603 139.657 603 138C603 136.343 601.657 135 600 135C598.343 135 597 136.343 597 138C597 139.657 598.343 141 600 141Z" fill="black" fill-opacity="0.1"/>
    <path fill-rule="evenodd" clip-rule="evenodd" d="M558 183C559.657 183 561 181.657 561 180C561 178.343 559.657 177 558 177C556.343 177 555 178.343 555 180C555 181.657 556.343 183 558 183Z" fill="black" fill-opacity="0.1"/>
    <path fill-rule="evenodd" clip-rule="evenodd" d="M558 102L560 137H556L558 102Z" fill="#AFB9C5"/>
    <path fill-rule="evenodd" clip-rule="evenodd" d="M575.698 155.699L557.314 140.142L560.142 137.314L575.698 155.699Z" fill="#AFB9C5"/>
    <path fill-rule="evenodd" clip-rule="evenodd" d="M558 142C560.209 142 562 140.209 562 138C562 135.791 560.209 134 558 134C555.791 134 554 135.791 554 138C554 140.209 555.791 142 558 142Z" fill="#C5CFD6"/>
    <g opacity="0.345889">
        <path fill-rule="evenodd" clip-rule="evenodd" d="M501.794 416.385C494.899 339.336 124.964 190.624 56.2873 263.603C-12.3897 336.582 53.6347 473.545 197.556 508.617C341.478 543.69 508.688 493.434 501.794 416.385Z" fill="#F2F2F2"/>
        <path fill-rule="evenodd" clip-rule="evenodd" d="M273.144 466.448C279.32 400.992 610.692 274.655 672.21 336.654C733.728 398.652 718.157 529.059 589.238 558.854C460.319 588.65 266.968 531.904 273.144 466.448Z" fill="#DDE3E9"/>
    </g>
    <path fill-rule="evenodd" clip-rule="evenodd" d="M74.5 209.673C97.9721 209.673 117 199.6 117 187.173C117 174.747 97.9721 164.673 74.5 164.673C51.0279 164.673 32 174.747 32 187.173C32 199.6 51.0279 209.673 74.5 209.673Z" fill="#F2F2F2"/>
    <path fill-rule="evenodd" clip-rule="evenodd" d="M124 202.673C124 175.059 101.838 152.673 74.5 152.673C47.1619 152.673 25 175.059 25 202.673" fill="#DDE3E9"/>
    <rect x="72" width="5" height="160" fill="#DDE3E9"/>
    <g opacity="0.7">
        <path fill-rule="evenodd" clip-rule="evenodd" d="M152 159C169.545 159 183.768 150.87 183.768 140.842C183.768 130.814 169.545 122.684 152 122.684C134.455 122.684 120.232 130.814 120.232 140.842C120.232 150.87 134.455 159 152 159Z" fill="#F2F2F2"/>
        <path fill-rule="evenodd" clip-rule="evenodd" d="M189 153.351C189 131.066 172.435 113 152 113C131.565 113 115 131.066 115 153.351" fill="#DDE3E9"/>
        <rect x="150" width="5" height="136" fill="#DDE3E9"/>
    </g>
    <path d="M584 234.236L602.568 215.66C605.692 212.535 610.759 212.535 613.884 215.66L663.316 265.113C666.315 268.114 668 272.182 668 276.424V604" stroke="#CBCBCB" stroke-width="8"/>
    <rect x="638" y="603" width="59" height="7" rx="3" fill="#AFB9C5"/>
    <path d="M548.499 223.335C561.386 210.447 582.28 210.447 595.168 223.335C608.055 236.222 608.055 257.116 595.168 270.004L575.369 289.803L528.7 243.134L548.499 223.335Z" fill="#C5CFD6"/>
    <path fill-rule="evenodd" clip-rule="evenodd" d="M548.228 270.527C561.115 283.414 573.62 291.804 576.159 289.265C578.697 286.727 570.308 274.222 557.42 261.335C544.533 248.447 532.028 240.058 529.49 242.596C526.951 245.135 535.341 257.64 548.228 270.527Z" fill="#F2F2F2"/>
    <path fill-rule="evenodd" clip-rule="evenodd" d="M63.258 372.173C66.1225 371.823 69.1799 371.947 71.8439 373.077C77.5085 375.482 79.1187 382.174 79.041 387.614C78.9573 393.468 77.7141 399.863 82.1651 404.58C84.2112 406.748 86.7563 408.408 88.7654 410.617C90.9122 412.977 92.5966 415.677 93.8438 418.577C96.1339 423.903 97.2578 430.167 95.1637 435.754C93.3199 440.674 88.6811 445.114 89.6834 450.708C90.729 456.543 96.6122 461.004 100.29 465.351C104.453 470.269 108.286 476.556 108.916 483.006C109.519 489.188 106.828 495.44 102.699 500.113C94.4477 509.451 82.0452 514.028 69.5396 514C64.23 513.988 58.2186 513.748 53.6366 510.895C52.2204 510.013 51.4733 509.023 50.6315 507.648C49.8767 506.414 48.8796 505.612 47.7255 504.739C45.1899 502.822 43.3587 500.239 42.1901 497.347C37.6522 486.114 41.2792 472.218 47.6312 462.243C49.1364 459.88 50.3686 457.605 49.6374 454.789C48.8744 451.848 46.999 449.196 45.3403 446.669C43.7011 444.17 41.8299 441.787 40.5488 439.087C39.207 436.257 38.8292 433.294 39.0662 430.198C39.5118 424.381 42.0227 419.013 45.5777 414.336C49.0017 409.83 53.0221 405.518 53.0311 399.615C53.041 393.357 48.8577 387.791 50.6399 381.429C51.3778 378.795 52.86 376.092 55.2486 374.513C57.5393 372.998 60.5639 372.502 63.258 372.173Z" fill="#DDE3E9"/>
    <path fill-rule="evenodd" clip-rule="evenodd" d="M61.3862 382.176C61.4399 381.336 62.4367 380.832 63.2215 381.051C64.2545 381.34 64.2346 382.305 64.2073 383.165C64.1237 385.808 64.5063 388.377 65.1417 390.942C66.4622 396.274 68.9027 401.186 70.8362 406.308C72.768 411.425 73.6748 416.709 72.5416 422.124C71.4732 427.23 69.7948 432.203 68.7015 437.315C67.7378 441.821 66.7123 446.573 68.1799 451.067C69.5921 455.393 72.7142 458.916 74.9625 462.825C79.6165 470.918 81.6813 479.896 81.9574 489.135C82.0854 493.425 81.9702 497.755 80.9749 501.963C80.402 504.386 79.6322 507.66 77.5559 509.333C76.5985 510.105 74.961 510.371 74.1552 509.229C73.3987 508.158 74.0624 506.499 74.3025 505.357C75.3427 500.413 75.5519 495.361 75.3029 490.342C75.0619 485.48 74.4874 480.626 72.9572 475.982C71.5369 471.673 69.3792 467.802 66.8398 464.032C64.2521 460.191 61.562 456.341 60.4928 451.789C59.4065 447.166 60.289 442.462 61.4691 437.927C62.7171 433.131 64.3518 428.472 66.0417 423.805C67.6886 419.258 68.2724 414.955 67.3632 410.196C65.5672 400.794 60.7598 391.968 61.3862 382.176Z" fill="#C5CFD6"/>
    <path fill-rule="evenodd" clip-rule="evenodd" d="M138.892 383.582C142.437 384.659 145.958 386.395 148.485 389.118C153.858 394.909 152.209 403.661 149.243 410.053C146.05 416.933 141.212 423.849 143.94 431.743C145.193 435.372 147.301 438.659 148.49 442.316C149.761 446.224 150.309 450.294 150.239 454.372C150.11 461.862 148.118 469.855 142.708 475.373C137.945 480.232 130.158 483.07 128.377 490.206C126.518 497.651 131.061 505.988 133.078 513.041C135.36 521.024 136.533 530.453 133.862 538.409C131.303 546.034 124.842 552.028 117.528 555.406C102.915 562.156 85.9487 561.117 71.2958 554.578C65.0748 551.801 58.1506 548.391 54.2845 542.633C53.0897 540.853 52.7364 539.294 52.476 537.23C52.2426 535.378 51.4972 533.911 50.6048 532.278C48.644 528.692 47.8618 524.684 48.0198 520.656C48.6345 505.011 60.2336 490.464 72.9562 481.972C75.9708 479.96 78.6181 477.912 79.2494 474.2C79.9086 470.325 79.1108 466.213 78.5012 462.361C77.899 458.554 76.9638 454.763 76.8888 450.902C76.8105 446.858 77.9334 443.157 79.8482 439.619C83.4453 432.972 89.2275 427.93 95.8696 424.247C102.267 420.7 109.262 417.692 112.393 410.715C115.712 403.32 113.747 394.561 119.2 387.964C121.458 385.233 124.625 382.807 128.262 382.182C131.749 381.583 135.558 382.57 138.892 383.582Z" fill="#DDE3E9"/>
    <path fill-rule="evenodd" clip-rule="evenodd" d="M131.651 395.811C132.154 394.844 133.584 394.769 134.387 395.44C135.443 396.324 134.914 397.456 134.432 398.46C132.95 401.547 132.052 404.789 131.452 408.159C130.204 415.166 130.485 422.262 130.063 429.341C129.642 436.414 127.935 443.147 123.774 448.965C119.85 454.452 115.283 459.462 111.327 464.943C107.841 469.773 104.153 474.863 103.516 480.954C102.901 486.817 104.707 492.626 105.288 498.434C106.492 510.457 104.204 522.171 99.6884 533.257C97.5911 538.405 95.1887 543.472 91.8211 547.933C89.8824 550.503 87.2673 553.977 83.9634 554.869C82.4399 555.281 80.3855 554.739 80.0415 552.964C79.7181 551.298 81.3628 549.682 82.2417 548.455C86.047 543.146 88.9376 537.273 91.2753 531.198C93.5399 525.314 95.4103 519.265 96.0529 512.963C96.6491 507.116 96.1532 501.401 95.1581 495.606C94.1443 489.701 93.0149 483.731 94.1486 477.781C95.2996 471.736 98.7953 466.628 102.55 461.876C106.521 456.85 110.873 452.19 115.293 447.549C119.6 443.027 122.536 438.238 123.966 432.126C126.79 420.049 125.791 407.078 131.651 395.811Z" fill="#C5CFD6"/>
    <path fill-rule="evenodd" clip-rule="evenodd" d="M29.306 428C35.2003 428 40.3823 431.124 43.9531 435.558C48.133 440.748 48.9772 447.086 50.6745 453.272C51.5191 456.35 52.9717 459.406 55.5174 461.498C57.8327 463.4 60.7721 463.78 63.5435 464.71C69.0822 466.567 73.5547 471.041 75.321 476.499C77.4758 483.158 75.1934 489.873 75.5864 496.622C75.9472 502.819 82.0576 506.685 86.9738 509.656C91.8215 512.586 96.1886 515.328 97.6487 521.035C99.1969 527.088 99.7164 533.844 97.5719 539.823C94.0015 549.779 83.5525 554.163 73.4561 554.842C64.2932 555.459 52.7719 554.491 45.8907 547.84C41.773 543.86 40.2819 538.293 40.4669 532.755C40.5818 529.311 41.264 525.899 42.146 522.571C42.7711 520.213 43.6157 517.864 43.8563 515.427C44.4959 508.942 38.5026 507.697 33.401 505.916C26.9183 503.654 22.3799 499.38 19.224 493.425C16.285 487.881 15.0519 481.658 16.8137 475.554C17.7135 472.437 19.3456 469.61 21.559 467.205C22.5334 466.146 23.9066 465.263 24.7861 464.151C25.6069 463.112 25.4282 461.766 25.1453 460.55C23.8373 454.931 19.762 450.278 18.3045 444.668C16.9887 439.605 17.7665 433.304 22.3954 430.038C24.3953 428.627 26.8616 428.016 29.306 428Z" fill="#C5CFD6"/>
    <path fill-rule="evenodd" clip-rule="evenodd" d="M37.3377 442.641C43.585 449.296 45.2831 458.325 45.7815 467.076C46.0606 471.983 45.7701 477.159 47.2118 481.919C48.4454 485.993 51.3373 489.107 54.3183 492.051C60.3188 497.975 67.0108 503.999 68.7659 512.574C69.7957 517.606 69.1006 522.804 70.5236 527.78C71.8175 532.304 74.0956 536.748 76.8665 540.568C79.0975 543.645 82.0042 546 84.443 548.867C85.1871 549.743 86.2529 551.031 85.9458 552.267C85.5865 553.714 83.7431 554.172 82.4352 553.945C79.3859 553.415 76.8191 550.503 74.8253 548.386C71.9098 545.291 69.4323 541.962 67.4187 538.227C65.1832 534.08 63.3833 529.679 62.6142 525.026C61.8161 520.199 62.2133 515.168 60.3909 510.535C57.3242 502.74 49.886 498.14 44.5082 492.064C37.8077 484.494 38.807 475.072 39.4933 465.759C39.8703 460.641 40.2451 454.862 37.6591 450.189C36.672 448.406 34.4711 446.743 34.0467 444.715C33.6579 442.858 35.7797 440.981 37.3377 442.641Z" fill="#AFB9C5"/>
    <path fill-rule="evenodd" clip-rule="evenodd" d="M44.0004 552C44.0004 590.058 50.2112 610 83.0001 610C115.789 610 122 590.058 122 552H44.0004Z" fill="#89C5CC"/>
    <rect x="179" y="497" width="38" height="9" rx="2" fill="#AFB9C5"/>
    <path fill-rule="evenodd" clip-rule="evenodd" d="M196.217 424H198H199H200.783C201.301 439.419 203.707 454.085 208 468H214.5C223.06 468 230 474.94 230 483.5C230 492.06 223.06 499 214.5 499H181.5C172.94 499 166 492.06 166 483.5C166 474.94 172.94 468 181.5 468H189C195.44 447.128 196.217 424 196.217 424Z" fill="#DDE3E9"/>
    <path fill-rule="evenodd" clip-rule="evenodd" d="M162.622 354.679C162.622 354.679 179.811 353 197 353C214.189 353 231.378 354.679 231.378 354.679L236 434.133C236 434.133 216.5 436 197 436C177.5 436 158 434.133 158 434.133L162.622 354.679Z" fill="#C5CFD6"/>
    <path fill-rule="evenodd" clip-rule="evenodd" d="M135 610V528V506H156H239H260V528V610H239V528H156V610H135Z" fill="#F2F2F2"/>
    <path fill-rule="evenodd" clip-rule="evenodd" d="M553.381 328.208C562.214 349.197 577.229 363.781 585.182 385.605C589.898 398.547 591.864 412.62 591.983 427.032C592.048 434.86 591.911 442.694 591.875 450.522C591.839 458.156 591.632 465.741 590.984 473.327C590.332 480.952 589.603 488.487 589.282 496.159C589.031 502.137 588.917 509.091 586.891 514.544C585.279 518.881 581.183 519.516 580.097 514.256C579.493 511.333 579.569 508.068 579.636 505.063C579.721 501.208 579.945 497.359 580.06 493.504C580.519 478.036 579.923 462.566 580.235 447.092C580.539 431.973 582.482 416.871 580.332 401.853C578.556 389.452 574.046 378.802 568.862 368.593C563.874 358.771 558.445 349.187 555.075 338.014C554.107 334.806 553.359 331.481 553 328.03C553.157 327.957 553.284 328.016 553.381 328.208Z" fill="#C1DEE2"/>
    <path fill-rule="evenodd" clip-rule="evenodd" d="M550.974 369.617C552.723 370.88 553.7 372.728 554.882 374.551C556.352 376.817 558.081 378.863 559.551 381.131C562.615 385.86 565.308 390.879 568.102 395.799C573.406 405.137 577.433 415.091 579.427 425.895C581.495 437.092 582.052 448.648 582.919 460.012C583.839 472.056 584.765 484.188 584.887 496.279C584.942 501.696 585.235 507.446 584.584 512.825C584.179 516.173 582.668 519.027 579.261 519C572.025 518.942 568.627 510.927 567.208 504.354C565.119 494.674 564.702 484.393 565.033 474.494C565.432 462.558 567.504 450.802 568.4 438.912C569.35 426.325 568.814 413.96 564.486 402.109C562.3 396.12 559.763 390.274 557.484 384.325C556.514 381.792 555.719 379.19 554.409 376.831C552.951 374.208 551.142 371.826 550 369C550.324 369.206 550.649 369.411 550.974 369.617Z" fill="#89C5CC"/>
    <path fill-rule="evenodd" clip-rule="evenodd" d="M634.334 344.518C634.556 344.345 634.778 344.173 635 344C634.361 346.693 633.207 348.88 632.324 351.341C631.531 353.554 631.129 356.058 630.595 358.477C629.34 364.158 627.89 369.711 626.706 375.44C624.36 386.777 624.804 398.99 626.342 411.568C627.795 423.45 630.092 435.313 631.187 447.192C632.095 457.043 632.485 467.202 631.619 476.601C631.031 482.984 629.103 490.606 623.848 489.962C621.374 489.659 620.084 486.681 619.564 483.32C618.729 477.922 618.554 472.246 618.229 466.878C617.502 454.896 617.358 442.951 617.214 431.092C617.078 419.904 616.705 408.494 617.452 397.587C618.173 387.063 620.428 377.58 623.653 368.83C625.351 364.22 626.97 359.502 628.878 355.108C629.793 353.001 630.911 351.139 631.827 349.033C632.563 347.339 633.148 345.601 634.334 344.518Z" fill="#C1DEE2"/>
    <path fill-rule="evenodd" clip-rule="evenodd" d="M553.209 404.302C554.166 402.695 556.272 407.993 556.593 408.66C556.457 408.328 556.321 407.997 556.184 407.667C558.083 410.825 559.821 414.113 560.901 417.734C561.97 421.319 562.888 424.977 563.891 428.587C565.774 435.361 568.202 441.943 569.907 448.778C571.569 455.438 571.988 461.986 571.585 468.875C571.167 476.035 570.911 483.306 571.399 490.462C571.632 493.88 572.743 497.064 573.504 500.354C574.266 503.648 574.866 506.986 575.767 510.239C575.974 509.815 576 511.232 576 511.339C575.994 512.152 575.881 512.833 575.619 513.604C574.948 515.586 573.691 517.269 571.778 517.816C568.322 518.803 565.112 515.659 563.998 512.339C562.399 507.575 561.517 502.311 560.755 497.304C560.057 492.713 559.891 488.094 560.099 483.44C560.508 474.261 562.169 465.202 562.618 456.026C563.107 446.036 561.128 436.649 559.471 426.925C558.673 422.239 557.91 417.598 556.356 413.134C555.727 411.326 554.907 409.731 554.048 408.061C553.558 407.112 552.569 405.418 553.209 404.302Z" fill="#C1DEE2"/>
    <path fill-rule="evenodd" clip-rule="evenodd" d="M581.252 388.697C580.856 400.142 580.172 411.5 578.646 422.824C577.089 434.38 575.3 445.897 573.802 457.463C572.343 468.722 570.815 480.168 571.018 491.585C571.168 499.993 569.774 514.219 579.113 518.369C588.572 522.572 590.601 504.623 591.222 498.699C592.412 487.333 592.027 475.847 591.449 464.419C590.856 452.689 589.866 441.02 588.64 429.334C587.277 416.353 586.208 403.314 585.349 390.296C584.925 383.857 584.82 377.429 584.937 370.988C585.048 364.911 584.817 358.77 582.656 353C582.543 353.082 582.431 353.164 582.318 353.246" fill="#69A1AC"/>
    <path fill-rule="evenodd" clip-rule="evenodd" d="M630.083 424.955C628.382 427.433 626.667 429.887 625.061 432.512C622.186 437.209 619.587 442.432 618.805 449.147C617.169 463.2 618.481 478.379 618.798 492.863C618.863 495.822 618.489 498.693 619.655 501.51C620.713 504.064 622.691 506.01 624.576 506C628.611 505.977 627.995 496.095 628.002 491.746C628.014 484.123 627.159 476.422 627.233 468.806C627.306 461.26 627.765 453.694 628.859 446.528C629.967 439.275 631.589 432.309 633.729 425.81C634.026 424.908 636.158 417.937 634.144 419.139" fill="#89C5CC"/>
    <path fill-rule="evenodd" clip-rule="evenodd" d="M612.262 350C609.609 350 609.625 363.226 609.546 364.925C609.257 371.055 609.325 377.188 609.143 383.319C608.744 396.701 608.254 410.2 606.243 423.426C605.161 430.547 603.907 437.636 602.557 444.702C601.204 451.789 599.387 458.867 598.497 466.044C597.642 472.943 598.125 479.977 598.242 486.91C598.359 493.885 598.57 500.874 599.484 507.788C599.709 509.494 599.974 511.195 600.257 512.891C600.492 514.305 600.355 516.058 600.754 517.401C601.393 519.552 604.133 520.256 605.978 519.92C610.97 519.009 614.159 512.74 615.865 508.16C618.043 502.311 619.199 495.967 620.339 489.804C621.631 482.821 622.388 475.732 622.743 468.623C623.466 454.175 622.539 439.712 621.504 425.31C620.928 417.301 620.263 409.327 619.246 401.367C618.232 393.441 616.932 385.55 616.086 377.601C615.471 371.825 614.865 366.04 614.467 360.241C614.371 358.859 614.291 350 612.262 350Z" fill="#69A1AC"/>
    <path fill-rule="evenodd" clip-rule="evenodd" d="M608.941 446.139C608.508 432.253 602.927 371.259 601.657 354.467C601.339 350.264 598.282 332.765 597.885 328C596.81 329.347 596.901 350.309 596.913 355.126C596.926 359.891 596.335 364.576 596.031 369.315C595.721 374.151 588.572 436.601 587.645 441.247C585.799 450.491 584.564 459.976 583.611 469.428C582.683 478.639 581.24 488.358 582.482 497.618C582.767 499.75 583.219 501.848 583.955 503.806C584.749 505.922 585.294 507.879 585.932 510.093C586.958 513.659 588.815 516.789 591.668 518.262C597.517 521.281 600.658 514.447 602.251 508.497C604.793 498.995 606.426 489.338 607.191 479.359C608.037 468.318 609.287 457.255 608.941 446.139Z" fill="#89C5CC"/>
    <rect x="547" y="487" width="91" height="91" rx="2" fill="white"/>
    <rect x="537" y="497" width="10" height="113" rx="2" fill="#C5CFD6"/>
    <rect x="587" y="497" width="10" height="113" rx="2" fill="#C5CFD6"/>
    <rect x="638" y="497" width="10" height="113" rx="2" fill="#C5CFD6"/>
</svg>
