<svg viewBox="0 0 1866 1983" fill="none" xmlns="http://www.w3.org/2000/svg" className="svg__man">
    <path fill-rule="evenodd" clip-rule="evenodd" d="M1032.42 594.452C997.426 612.579 963.04 621.337 946.898 617.762C906.423 608.797 902.702 481.554 934.019 431.391C965.337 381.228 1126.34 359.364 1134.45 458.753C1137.27 493.248 1120.41 524.032 1095.51 549.151L1140.16 728H1010.46L1032.42 594.452Z" fill="#DEC1A7"/>
    <path fill-rule="evenodd" clip-rule="evenodd" d="M1105.48 571.524C1121.75 509.287 1168.13 466.861 1161.05 439.044C1153.97 411.226 1123.29 404.446 1123.29 404.446C1123.29 404.446 1107.43 349.296 1020.96 357.531C934.499 365.767 881.726 396.624 904.516 464.523C925.466 464.523 950.756 458.012 985.728 469.167C1002.37 474.476 1009.54 502.095 1009.54 502.095H1025.34C1025.34 502.095 1048.35 469.319 1070.71 478.007C1093.07 486.694 1080.88 520.21 1080.88 520.21L1088.66 571.524H1105.48Z" fill="#212121"/>
    <path fill-rule="evenodd" clip-rule="evenodd" d="M1569.63 1318C1578.47 1318 1585.63 1325.17 1585.63 1334V1883C1585.63 1891.84 1578.47 1899 1569.63 1899H824C815.163 1899 808 1891.84 808 1883V1334C808 1325.17 815.163 1318 824 1318H1569.63ZM1433.51 1449.2C1435.72 1449.2 1437.51 1450.99 1437.51 1453.2V1763.81C1437.51 1766.02 1435.72 1767.81 1433.51 1767.81H960.12C957.911 1767.81 956.12 1766.02 956.12 1763.81V1453.2C956.12 1450.99 957.911 1449.2 960.12 1449.2H1433.51Z" fill="#F44336"/>
    <path fill-rule="evenodd" clip-rule="evenodd" d="M238.595 1755.65C390.33 1684.79 495.82 1629.55 555.064 1589.93C656.505 1522.1 742.101 1459.93 771.242 1434.8C840.734 1374.89 721.384 1288.07 677.654 1311.64C611.466 1347.31 449.266 1477.38 191.054 1701.84L238.595 1755.65Z" fill="#C8AE96"/>
    <path fill-rule="evenodd" clip-rule="evenodd" d="M738.467 1467.52L984.5 1269.06C1032.67 1234.71 940.875 1144.29 912.39 1156.94C847.721 1185.67 651.488 1331.34 632.221 1339.9L738.467 1467.52Z" fill="#C8AE96"/>
    <path fill-rule="evenodd" clip-rule="evenodd" d="M986.029 1837.46C980.994 1777.61 954.27 1571 926.145 1476.33C918.063 1449.13 909.981 1422.85 902.172 1398.21C878.96 1324.96 712.427 1337.6 738.457 1406.94C803.282 1579.63 905.973 1820.91 913.99 1841.81C925.226 1871.1 989.193 1875.07 986.029 1837.46Z" fill="#DEC1A7"/>
    <path fill-rule="evenodd" clip-rule="evenodd" d="M979.097 1771.54C979.755 1770.67 981.091 1770.49 982.053 1771.17C988.216 1775.51 1008.74 1790.33 1014.8 1799.62C1021.95 1810.59 1031.55 1833.76 1031.55 1833.76C1017.17 1841.11 773.156 1965.9 773.156 1965.9C773.156 1965.9 743.859 1941.55 764.026 1928.11C784.194 1914.66 797.312 1905.42 797.312 1905.42L889.095 1793.42C889.428 1793.01 890.071 1792.94 890.54 1793.26L912.539 1808.26C912.539 1808.26 938.039 1806.29 950.599 1799.87C961.179 1794.46 975.002 1776.93 979.097 1771.54Z" fill="#D1D1D1"/>
    <path fill-rule="evenodd" clip-rule="evenodd" d="M262.925 1741.24C263.933 1741.67 264.412 1742.83 263.985 1743.84C261.247 1750.32 251.628 1772.25 243.773 1779.59C234.515 1788.25 213.497 1801.37 213.497 1801.37C202.161 1789.24 9.74292 1583.41 9.74292 1583.41C9.74292 1583.41 26.6781 1551.66 45.7735 1568.11C64.8689 1584.56 77.7857 1595.17 77.7857 1595.17L216.467 1660.97C216.945 1661.2 217.163 1661.76 216.965 1662.25L207.576 1685.52C207.576 1685.52 216.414 1709.01 226.318 1719.61C234.713 1728.59 256.488 1738.44 262.925 1741.24Z" fill="#D1D1D1"/>
    <path fill-rule="evenodd" clip-rule="evenodd" d="M911.397 1429.77C911.397 1429.77 1081.38 1402.11 1139.11 1391.95C1248.81 1372.62 1280.8 1313.66 1261.89 1185L1059.76 1185C1019.64 1196.57 724.47 1328.16 724.47 1328.16C689.065 1345.71 695.658 1397.47 702.13 1414.53C702.526 1415.57 865.5 1720.5 865.5 1720.5L960 1688L911.087 1442.17C911.087 1442.17 905.721 1431.38 911.397 1429.77Z" fill="#DEC1A7"/>
    <path fill-rule="evenodd" clip-rule="evenodd" d="M571.646 1171.05L740.388 1061.3L777.69 1142.97L610.591 1204.34C563.333 1253.51 536.907 1274.01 531.313 1265.83C526.597 1258.94 530.283 1252.49 533.679 1246.54C536.325 1241.92 538.793 1237.59 536.976 1233.61C532.825 1224.53 501.08 1225.48 470.999 1227.53C440.917 1229.58 449.684 1217.73 456.937 1211.87C487.643 1195.59 525.879 1181.98 571.646 1171.05ZM1456.56 1364.43C1441.06 1336.57 1388.27 1065.08 1388.27 1065.08L1277.72 1065.47C1277.72 1065.47 1380.11 1358.22 1388.27 1376.13C1398.87 1399.4 1380.86 1433.21 1368.65 1456.13C1366.77 1459.68 1365.02 1462.96 1363.53 1465.91C1380.47 1472.63 1388.61 1464.51 1397.19 1455.95C1406.88 1446.29 1417.14 1436.06 1441.28 1446.01C1450.6 1449.85 1459.43 1454.4 1468.05 1458.83C1497.83 1474.17 1525.19 1488.25 1562.41 1467.91C1568.31 1464.69 1574.78 1452.55 1559.16 1443.06C1520.23 1419.42 1464.14 1378.05 1456.56 1364.43Z" fill="#DEC1A7"/>
    <path fill-rule="evenodd" clip-rule="evenodd" d="M1074.11 654.227L1028.37 647.278C858.65 777.137 788.939 1026.61 580.903 1158.77L630.976 1213.74C991.88 1174.16 1081.33 869.864 1074.11 654.227Z" fill="#512DA8"/>
    <path fill-rule="evenodd" clip-rule="evenodd" d="M1274 1270C1274 1270 1017.41 1270 896.51 1270C879.26 1270 882.511 1241.61 885.004 1227.29C913.782 1061.98 1026.12 883.778 1026.12 648.459L1135.01 629C1225.07 794.077 1256.21 997.319 1274 1270Z" fill="#DEC1A7"/>
    <path fill-rule="evenodd" clip-rule="evenodd" d="M1319.03 1261.78C1337.22 1300.47 1355.06 1334.24 1371.87 1360.17H1458.67C1468.01 1092.72 1353.69 886.927 1258.01 762.84C1279.26 761.495 1298.43 753.622 1310.55 734.251C1353.22 666.053 1337.81 628.506 1292.21 616.164C1267.13 609.377 1243.55 614.009 1215.32 619.554C1192.22 624.092 1166 629.241 1133.31 629.244C1133.3 629.244 1133.29 629.244 1133.28 629.244C1130.11 629.244 1127.23 629.432 1124.61 629.792L1085.88 631.75C1085.88 631.75 928.585 1103.91 999.116 1261.78H1319.03Z" fill="#673AB7"/>
    <path fill-rule="evenodd" clip-rule="evenodd" d="M1319.03 1261.78C1295.16 1211.01 1270.69 1151.75 1247.14 1090.55C1238.37 1157.94 1223.77 1225.64 1199.46 1261.78H1319.03Z" fill="black" fill-opacity="0.1"/>
</svg>
