<svg xmlns="http://www.w3.org/2000/svg" viewBox="0 0 1440 320">
    <defs>
        <linearGradient id="grad1" x1="0%" y1="0%" x2="100%" y2="0%">
            <stop offset="0%" style="stop-color:#512da8;stop-opacity:1" />
            <stop offset="100%" style="stop-color:#9575cd;stop-opacity:1" />
        </linearGradient>
    </defs>
    <path fill="url(#grad1)"  fill-opacity="1" d="M0,96L30,90.7C60,85,120,75,180,80C240,85,300,107,360,128C420,149,480,171,540,170.7C600,171,660,149,720,122.7C780,96,840,64,900,69.3C960,75,1020,117,1080,133.3C1140,149,1200,139,1260,149.3C1320,160,1380,192,1410,208L1440,224L1440,320L1410,320C1380,320,1320,320,1260,320C1200,320,1140,320,1080,320C1020,320,960,320,900,320C840,320,780,320,720,320C660,320,600,320,540,320C480,320,420,320,360,320C300,320,240,320,180,320C120,320,60,320,30,320L0,320Z" />
</svg>