<svg version="1.1" viewBox="0 0 740 680" xmlns="http://www.w3.org/2000/svg">
    <title>Scene/Whiteboard</title>
    <desc>Created with Sketch.</desc>
    <g fill="none" fill-rule="evenodd">
        <path d="m53.811 519.87c16.306-83.973 181.31-36.135 289.48-62.095s236.15-146.86 320.85-87.639c84.697 59.225-5.4197 202.39-199.68 234.69-194.26 32.307-426.95-0.98638-410.65-84.96z" fill="#F2F2F2"/>
        <g transform="translate(95 125)" opacity=".5">
            <path d="m1.908 2.6723c-1.573 1.5705-0.962 7.152-0.99496 9.2175-0.050607 3.2156 0.1495 6.4024 0.41832 9.6064 0.18014 2.1453 1.1955 22.618 4.0212 21.045 1.593-0.88583 0.59429-6.808 0.5915-8.6812-0.0065-4.1645-0.17968-8.3187-0.45732-12.474-0.25814-3.8576-0.42018-7.6702-0.27161-11.535 0.036214-0.94331 0.91882-11.412-3.3071-7.1789" fill="#89C5CC"/>
            <path d="m70.409 0.14866c-13.514 0.10754-27.021 0.77411-40.528 1.1825-6.4995 0.19654-12.995 0.44639-19.487 0.80656-2.2123 0.12284-6.9573-0.58545-8.8005 0.59333-4.0918 2.6172 2.5071 3.229 4.2663 3.1651 26.73-0.96927 53.47-2.2459 80.223-2.3061 13.124-0.029203 26.24 0.34441 39.365 0.26051 5.0171-0.031984 10.573-2.1935 11.84 3.6462 1.43 6.5897-0.21311 13.927-0.66021 20.548-0.29854 4.4203-0.19222 8.7489 0.006964 13.166 0.12768 2.8295-0.20475 6.0177 0.29529 8.7943 0.48146 2.6737 2.4036 4.2771 4.1656 1.2822 1.0525-1.7897 0.52882-6.2087 0.59893-8.2821 0.09425-2.7924 0.005571-5.5838 0.005571-8.3767-9.28e-4 -6.8168 0.96154-13.607 0.83432-20.422-0.081715-4.3948-0.31525-12.362-5.8584-13.418-6.104-1.163-13.607 0.0064896-19.853-0.064896-15.478-0.17661-30.93-0.69531-46.413-0.57433" fill="#89C5CC"/>
            <path d="m33.174 42.786c-5.0955 0-10.192 0.030594-15.287 0.11496-4.3699 0.072312-11.24-0.83855-15.308 0.72498-2.7843 1.0703-3.5239 4.1788 0 5.0067 3.8434 0.90344 9.6358-0.5734 13.657-0.64432 20.164-0.356 40.522-0.82001 60.658 0.4552 18.868 1.1945 38.099 2.3529 56.994 1.0921 1.5897-0.10615 9.698-0.42878 5.9981-3.4682-2.1585-1.774-10.907-0.60724-13.712-0.69207-9.8944-0.29852-19.799-0.36481-29.69-0.73981-9.7621-0.37037-19.481-1.468-29.246-1.7397-11.345-0.31567-22.716-0.10986-34.065-0.10986" fill="#89C5CC"/>
            <path id="face" d="m28.075 13.804c7.9421 0.34673 15.8 11.865 7.7638 17.431-7.5386 5.2232-21.667-0.50109-17.475-10.629-0.60264 1.4643 0.76189-1.5909 0.77907-1.6113 0.79718-0.93914 2.2286-1.9789 3.211-2.7191 1.1245-0.84735 2.2954-1.78 3.6511-2.2046 0.89004-0.27859 0.75029 0.76994 2.0702-0.267m-3.868-4.1543c-3.7171 1.4513-5.4136 3.0886-7.9681 6.0511-1.7675 2.0502-4.0207 3.1289-4.0008 5.8995 0.0041786 0.61327 0.79207 1.2873 0.92811 1.8778 0.18804 0.8163-0.029714 1.862 0.11932 2.7293 1.5377 8.9491 12.215 11.966 20.031 10.277 6.8083-1.4717 11.9-8.0072 10.323-15.114-1.5879-7.1538-12.196-14.551-19.433-11.721" fill="#89C5CC"/>
            <path d="m20.896 22.143c0 3.2193 5.0853 3.2193 5.0853 0 0-3.1827-5.0853-3.3194-5.0853 0" fill="#89C5CC"/>
            <path d="m27.258 21.491c0 2.5583 4.0407 2.5583 4.0407 0 0-2.5291-4.0407-2.6371-4.0407 0" fill="#89C5CC"/>
            <path d="m28.51 26.767c-1.294 0.49738-2.9352-0.534-3.9975 0.14555-1.8813 1.2043 0.0046429 2.2941 1.0131 2.778 4.5402 2.1786 5.3481-3.8289 2.9844-2.9236" fill="#89C5CC"/>
            <path d="m97.85 19.632c-0.13511 0.057479-0.61704 0.26144 0 0m-19.772-2.8897c-3.3981 0.76716-6.2674 3.9406-9.9594 3.516-2.8294-0.32541-4.745-3.0557-7.5381-3.4525-3.5731-0.50804-13.298 7.6429-8.1849 9.0414 2.983 0.8163 4.6378-4.635 7.273-4.9247 2.0846-0.22899 4.9196 2.3274 7.0799 2.6913 4.03 0.67909 6.7976-1.5408 10.335-2.9722 3.8443-1.5556 6.0315-0.15482 9.3749 1.5742 2.639 1.3647 5.1243 2.2533 8.144 1.6901 2.834-0.52797 6.3941-3.4423 9.2467-3.1433 2.7941 0.29296 4.7882 3.2086 7.6621 3.4793 1.1849 0.11125 2.9487 0.51499 2.7495-1.3132-0.15925-1.4639-1.7926-1.2159-2.8145-1.748-2.6279-1.3684-5.0858-3.7922-8.2573-3.5855-2.3855 0.15575-4.5574 1.8319-6.7558 2.6338-7.2001 2.626-11.248-5.0809-18.356-3.4868" fill="#89C5CC"/>
            <path d="m84.092 63.111c-13.889 0.12747-27.824 0.33375-41.674 1.4472-3.2834 0.26376-36.81 3.4293-36.747 3.6573 0.11746 0.42182 4.4298 1.0661 4.4028 1.1658-0.29064-0.72081-0.95504-1.0193-1.9927-0.89464 31.798 0 63.494-2.8471 95.334-2.3349 8.0001 0.1284 16.03 0.07463 24.025 0.3268 1.996 0.063042 6.9411 1.4935 8.5085 0.59241 4.1136-2.3655-3.3596-2.6385-4.5974-2.7377-15.669-1.2534-31.546-1.379-47.259-1.2224" fill="#69A1AC"/>
            <path d="m1.5557 69.859c-2.0763 2.0818-0.16436 9.5707-0.082643 12.385 0.11839 4.0694 0.020893 8.1676 0.37793 12.226 0.40764 4.6363 1.04 9.5758 2.2564 14.074 0.66996 2.4781 3.0216 6.4163 3.9534 1.9135 0.66532-3.2161-0.34496-7.4825-0.69643-10.759-0.47032-4.3828-0.58407-8.7081-0.60171-13.112-0.015786-3.8377-0.089607-7.6911-0.40439-11.517-0.16343-1.9863-1.1626-8.8323-4.8026-5.2116" fill="#69A1AC"/>
            <path d="m53.794 108c-9.8559 0.16919-19.733 0.40143-29.572 1.017-4.0328 0.25263-8.0623 0.62856-12.08 1.055-0.81993 0.086682-9.8949 0.4552-5.8398 3.8043 1.8302 1.5121 9.3591-0.5785 11.846-0.79636 4.1823-0.36666 8.3636-0.60492 12.558-0.78246 9.7184-0.41255 19.467-0.7769 29.195-0.60817 17.766 0.30826 35.418 0.44593 53.19 0.049599 2.5248-0.056089 22.306 0.47235 22.978-2.1545 0.54136-2.117-6.5325-1.1459-7.8223-1.1074-4.7315 0.14138-9.4635 0.10847-14.197 0.084364-20.051-0.10291-40.219-0.9002-60.255-0.56135" fill="#69A1AC"/>
            <path d="m132.72 66.347c0.31293 8.7753 1.8075 17.54 2.2852 26.342 0.21821 4.0235 0.47543 8.0434 0.67229 12.068 0.063607 1.2984-0.45964 4.4268 1.0758 5.1736 2.106 1.0244 2.3897-1.0397 2.7839-2.4359 1.1389-4.0328 0.36864-9.2713 0.26511-13.414-0.099821-4.0115-0.10679-8.0299-0.40254-12.034-0.30318-4.0908-1.1268-8.1041-1.5089-12.18-0.16157-1.7239 0.40346-4.5928-1.4268-5.6626-1.5818-0.92477-3.8122 0.24058-3.744 2.1425" fill="#69A1AC"/>
            <path id="b" d="m35.845 80.944c0.037607 0.02874 0.07475 0.057943 0.11189 0.087146-0.037143-0.029203-0.07475-0.057943-0.11189-0.087146m-8.3757-2.6c3.1232 0.89232 5.6884 0.55949 8.6719 2.8332 2.4732 1.8852 5.0101 4.6433 5.8305 7.6915 1.8952 7.0426-4.53 10.902-10.554 10.978-6.1699 0.077412-15.302-1.3535-14.986-9.262 0.24236-6.0761 4.6791-12.005 11.037-12.241m0.22007-3.98c-8.099 0.40328-14.632 9.4984-14.562 17.154 0.0845 9.2787 10.598 11.669 18.067 11.734 8.4291 0.072313 16.835-5.7479 14.576-15.227-1.8098-7.5947-10.292-14.066-18.081-13.661" fill="#69A1AC"/>
            <path d="m19.542 86.822c0 2.5875 4.088 2.5875 4.088 0 0-2.5578-4.088-2.6677-4.088 0" fill="#69A1AC"/>
            <path d="m28.117 85.687c0 2.6079 4.1205 2.6079 4.1205 0 0-2.5782-4.1205-2.689-4.1205 0" fill="#69A1AC"/>
            <path d="m23.39 91.589c-2.6608 2.6566 6.6866 7.3138 8.8911 3.6179 1.8107-3.0353-2.1315-2.0289-3.529-2.193-1.5187-0.17893-4.1224-2.6612-5.362-1.4249" fill="#69A1AC"/>
            <path d="m98.124 85.74c-0.25629 0.10754-0.25629 0.10754 0 0m-35.102-4.3248c-2.6942 0.50526-11.536 3.4882-11.655 6.6847-0.21821 5.81 8.4412-0.14092 10.322-0.9053 5.1081-2.0757 7.7921 2.1587 12.923 2.3821 4.4567 0.19422 8.5545-3.6198 12.753-3.1688 4.3986 0.47235 6.5144 5.1518 11.592 2.6672 2.6864-1.3141 2.6186-3.3403-0.39696-3.5313-1.8228-0.11542-3.075 0.63783-4.9753-0.14648-2.9719-1.2256-4.1688-3.2216-7.7252-2.9046-2.6836 0.23919-5.109 1.7517-7.7285 2.3372-5.9981 1.3401-9.3252-4.4982-15.108-3.4149" fill="#69A1AC"/>
            <path d="m118.82 88.263c-0.18525 0.077875-0.18525 0.077875 0 0m0.67971-2.4192c0.029714 0.012979 0.23307 0.29481 0 0m-3.0884-1.8468c-0.11607 0.089464-0.11607 0.089464 0 0m0.067322-0.022714c0.59893 0.35832 5.414 3.6509 1.9166 4.4264-1.7754 0.39355-3.2444-3.179-1.9166-4.4264m-1.5944-3.6476c-7.7132 3.5169 0.58686 16.102 6.6402 10.989 2.5471-2.1518 2.8823-6.5007 0.40439-8.7424-1.4848-1.3433-5.0291-3.1669-7.0446-2.2463" fill="#69A1AC"/>
            <path d="m42.477 129.92c-9.6246 0.002781-19.334-0.19932-28.945 0.3713-1.6176 0.095953-7.7796-0.21184-8.613 1.4792-1.5247 3.0928 4.8156 1.5575 5.7367 1.4648 19.138-1.9158 39.129-0.81352 58.33-0.26746 15.704 0.44639 31.323 0.72359 47.008 1.5329 4.1229 0.21277 8.242 0.44778 12.362 0.69624 1.3427 0.08112 4.7222 0.97112 5.0055-1.1737 0.26186-1.9849-3.9539-1.5366-5.0069-1.5923-8.3748-0.44083-16.744-0.90252-25.116-1.3739-20.152-1.1361-40.576-1.1408-60.761-1.1371" fill="#89C5CC"/>
            <path d="m4.6094 133.36c-1.7977 1.787-0.95504 8.6108-1.0052 10.866-0.08775 3.9447-0.27393 7.8862-0.3575 11.83-0.086821 4.1218 0.033893 8.2626 0.27764 12.378 0.10214 1.7281 1.5205 10.08 3.7538 5.3006 0.99775-2.136-0.024143-8.0851-0.0088214-10.505 0.027393-4.4046 0.26464-8.7906 0.48379-13.189 0.1885-3.7811 0.19546-7.5659 0.36075-11.348 0.052464-1.2057 0.195-9.0437-3.5044-5.333" fill="#89C5CC"/>
            <path d="m134.98 168.6c-9.3665 0.96-18.883 0.50619-28.286 1.2154-8.1032 0.61095-16.199 0.8608-24.323 1.0328-18.396 0.38845-36.824 0.76716-55.167 2.3001-4.1804 0.34905-8.3558 0.71988-12.547 0.90715-2.0962 0.093635-10.893-0.86033-11.548 1.3494-1.1157 3.7635 8.2912 2.2741 10.32 2.2153 4.4618-0.12886 8.9027-0.45149 13.352-0.79034 18.703-1.4249 37.478-1.8509 56.221-2.4433 10.194-0.3217 20.317-1.0675 30.488-1.7462 5.0695-0.33792 10.153-0.34905 15.222-0.67677 1.3265-0.085756 6.0213 0.083437 6.9754-0.9841 0.65557-0.73286 0.82132-2.5221-0.70804-2.3794" fill="#89C5CC"/>
            <path d="m131.8 134c0.32129 8.9825 0.82875 17.957 1.1319 26.94 0.091464 2.7011-0.72475 7.5423 0.77954 9.9244 2.4185 3.8302 4.3062-0.22343 4.7492-2.6102 1.398-7.533-0.10493-15.855-0.49539-23.434-0.14857-2.8916 0.74936-9.3274-0.64814-11.915-1.3311-2.4651-5.6364-2.2176-5.5171 1.0953" fill="#89C5CC"/>
            <path d="m116.08 146.79c3.5885 0.97205 4.1126 8.7739 0.063607 9.351-6.0269 0.85894-3.3911-7.7425-0.063607-9.351m-1.0052-3.1025c-1.0948-0.034302-3.6214-0.33607-4.296 0.55486-0.56457 0.74584 0.006036 2.3186-0.059892 3.0288-0.23725 2.5384-2.301 4.0041-1.3785 7.0009 0.62632 2.034 2.3033 3.9452 4.3471 4.6516 10.785 3.7278 10.654-17.111 1.3873-15.236" fill="#89C5CC"/>
            <path d="m17.702 145.09c-0.026929 0.034302-0.053857 0.068604-0.080322 0.10291 0.026464-0.034302 0.053393-0.068604 0.080322-0.10291m8.4709-4.507c-0.04225-0.36064-0.0845-0.72173-0.12675-1.0828 5.8477 2.7604 10.501 7.895 8.5591 14.787-1.4815 5.258-6.8343 7.1228-11.821 5.8249-5.5204-1.4374-8.1584-5.9876-6.6699-11.575 0.68668-2.5778 2.7955-6.0418 5.5213-6.8706 1.2689-0.38567 4.075 0.5975 4.5375-1.0833m-3.4195-2.1828c-1.4792 0.099662-2.919 0.71617-4.1261 1.5589 1.1301-0.95582 2.6362-1.5251 4.1261-1.5589m0.04225-3.3959c-3.6539 0.11171-6.0482 2.3237-8.2155 4.9803-0.68018 0.83391-2.9798 3.0445-2.6952 4.1682 0.22518 0.88815 0.81436 2.187 2.0549 1.1969-6.4977 12.95 10.288 23.995 20.535 14.99 9.5634-8.404 0.075214-25.729-11.68-25.335" fill="#89C5CC"/>
            <path d="m19.476 147.03c0 1.7244 2.6771 1.7244 2.6771 0s-2.6771-1.7244-2.6771 0" fill="#89C5CC"/>
            <path d="m24.044 147.33c0 1.7527 2.7202 1.7527 2.7202 0s-2.7202-1.7527-2.7202 0" fill="#89C5CC"/>
            <path d="m26.117 153.48c-1.2726 0.10337-5.9308-0.32912-6.7484 0.7857-1.3664 1.8625 0.81436 1.9274 1.8855 2.1286 0.96479 0.18124 5.1587 0.078802 5.7497-0.77782 0.52232-0.75696 0.40021-2.2459-0.88679-2.1365" fill="#89C5CC"/>
            <path d="m82.241 148.65c-0.21868 0.090391-0.21868 0.090391 0 0m-17.601-1.2873c-2.8674 0.21091-5.2961 1.8602-8.0377 2.5184-2.9264 0.70273-4.193-0.58962-6.8538-1.4356-2.7681-0.8798-4.7371-0.53214-6.962 1.3582-1.2605 1.0712-4.0263 3.5368-3.2384 5.4397 1.8042 4.3554 5.8881-2.7307 7.8088-3.0603 2.9965-0.51407 5.6624 2.1059 9.1176 1.3563 3.1311-0.67862 5.9094-2.8285 9.1799-2.8517 2.7346-0.019469 5.3119 1.4768 8.0117 1.8389 4.1215 0.55301 6.8278-0.9104 10.638-1.9969 3.3039-0.94192 5.6206 0.30038 8.7281 1.3452 1.4202 0.47745 6.1592 2.2134 5.2868-0.9345-0.24654-0.88907-6.4916-2.479-7.4597-2.785-3.4144-1.0787-5.5765-0.65823-8.8289 0.58174-2.7124 1.0346-4.9939 1.5385-7.9021 0.96927-3.204-0.62717-6.1179-2.5995-9.4881-2.3437" fill="#89C5CC"/>
        </g>
        <g transform="translate(287 64)" opacity=".5">
            <path d="m4.5746 64.012c0.46296-9.9565 1.0994-19.899 1.4348-29.862 0.16607-4.9367 0.29642-9.8739 0.42214-14.812 0.027833-1.0995 0.056594-2.1985 0.081181-3.298 0.081644-3.7352-0.36137-4.0408 3.3975-4.3724 16.769-1.4802 33.605-1.9708 50.394-3.31 20.248-1.6151 40.602-2.7304 60.908-3.2303 9.0236-0.22258 18.085-0.68352 27.11-0.40297 1.9998 0.062138 5.9248-0.45815 6.712 1.0962 0.34003 0.67146-0.37343 2.9822-0.46389 3.757-0.28297 2.4206-0.54692 4.8496-0.70975 7.2822-0.96025 14.347-0.38781 29.056 2.3904 43.186-6.5172-3.675-14.751-6.8361-22.347-6.2087-7.7442 0.63947-13.537 5.1139-19.736 9.2321-3.5065 2.3292-4.6876 2.9418-8.1858 0.68537-3.0144-1.9448-5.8663-4.1684-8.7104-6.3506-4.3889-3.368-8.5309-7.0197-12.787-10.55-7.8253-6.492-18.607-15.733-29.415-13.012-7.7219 1.9439-14.852 6.1878-21.555 10.341-9.9574 6.1707-18.971 13.727-28.941 19.828m134.2-63.708c-38.473 0-76.658 3.7297-115.02 5.7473-4.0066 0.21053-7.9998 0.52075-11.992 0.9061-2.6609 0.2569-9.1678-0.82171-10.912 1.4519-1.1634 1.5168-0.16375 1.7445 0 3.1857 0.20643 1.8164 0.083964 3.9685 0.030617 5.8911-0.12803 4.6325-0.26256 9.2646-0.36786 13.898-0.39709 17.51-0.64527 35.017 0.063553 52.522 0.15448 3.8178 1.5457 9.1037 0.78444 12.813-0.55064 2.6858-2.3927 4.3204 1.8551 4.8166 4.1801 0.48876 9.2912-0.754 13.475-1.1519 4.2079-0.40065 8.4154-0.83515 12.628-1.1825 18.317-1.5094 36.812-1.2812 55.177-1.783 18.531-0.50592 37.068-0.53838 55.605-0.54858 7.7562-0.0041735 16.619 0.43172 24.187-1.7028 2.6627-0.75122 3.0932-1.1213 2.4368-3.7631-0.12479-0.50128-0.9287-0.6863-1.1648-1.5924-0.32055-1.233-0.15587-2.7318-0.23102-4.0153-0.24493-4.192-0.33029-8.3914-0.52791-12.586-0.32982-7.0086-1.5378-13.81-2.4312-20.749-1.0312-8.0126-0.97834-16.148-0.99922-24.213-0.012061-4.4735 0.10298-8.9321 0.46203-13.393 0.23055-2.8611 1.6394-7.1329 0.925-9.8011-0.3558-1.3285-0.93845-2.3821-2.3213-2.9539-0.87582-0.36263-1.6125-0.078832-2.4786-0.17065-1.027-0.10897-1.6681-0.25319-2.8988-0.53188-5.2721-1.195-10.91-1.0939-16.283-1.0939" fill="#69A1AC"/>
            <path d="m117.49 19.352c-0.002783 2.7883-0.43791 6.9029 0.84752 9.5285 1.6306 3.3304 3.6703 2.2894 4.2107-0.84025 0.30941-1.7932 0.30199-7.1-0.27416-8.6882-0.81505-2.2481-4.7841-3.7793-4.7841 0" fill="#89C5CC"/>
            <path d="m122.17 20.429c-2.6177 0.09228-10.241-0.53606-12.012 1.5688-3.038 3.61 2.2508 4.2495 4.5215 4.0473 2.6279-0.23371 10.748 0.33666 12.508-1.7705 2.9438-3.5252-2.9591-3.9207-5.0174-3.8456" fill="#89C5CC"/>
            <path d="m20.583 113.58c11.508 1.9991 7.9279 19.545-2.9615 15.481-3.7941-1.4162-9.3849-5.508-7.2877-10.329 1.5666-3.6022 6.6721-5.495 10.249-5.1519m-4.7646-5.4556c-7.4844 1.2599-12.601 9.3592-10.035 16.424 2.4753 6.8157 11.865 11.807 18.789 9.3573 6.6104-2.3385 9.9082-11.134 7.6797-17.568-2.3287-6.7225-9.9147-9.311-16.434-8.2134" fill="#89C5CC"/>
            <path d="m85.816 115.63c-2.865 0.23789-5.3412 2.2439-8.2243 2.5991-2.6957 0.33202-4.9297-0.59031-7.4538-1.3276-3.051-0.8908-5.8492-1.2826-8.967-0.49108-2.3825 0.60515-4.7326 2.2263-7.2074 2.422-4.8699 0.38442-10.53-5.1718-14.332 1.1125-1.8226 3.0128 0.82387 4.9534 3.5501 3.5484 2.8422-1.4644 1.4469-1.9889 4.9724-1.1236 2.9415 0.72108 5.319 1.1129 8.2656 0.10202 2.6692-0.91538 5.0123-2.5908 7.913-2.7791 2.8404-0.1841 5.3115 1.1097 8.0267 1.668 3.3391 0.6863 6.2936 0.16694 9.4573-0.87967 3.0092-0.9956 4.2098-1.54 7.2464-0.65199 1.9228 0.56249 6.1233 2.3492 7.9947 0.90935 3.2361-2.4892-1.0962-2.8532-2.8024-3.2071-2.7467-0.56898-5.5889-2.1345-8.4395-1.9012" fill="#89C5CC"/>
            <path d="m151.38 113.96c0.023195 0.017621 0.045925 0.035242 0.068192 0.052863-0.022267-0.017621-0.045461-0.035242-0.068192-0.052863m-2.8126-0.58846c4.1829 0.26942 8.7063 7.8892 3.1637 8.1596-3.9013 0.19059-8.2656-6.4818-3.1637-8.1596m-0.58682-6.2351c-13.227 3.6935-7.1805 22.341 5.5778 20.187 5.7944-0.97844 7.7585-7.6921 5.8427-12.662-0.82248-2.1345-2.4266-3.9342-4.3439-5.1626-1.4144-0.9061-5.4604-2.8129-7.0766-2.3626" fill="#89C5CC"/>
            <path d="m5.7554 226.32c-0.39052-1.7354-0.17918-4.3879-0.20093-5.0011-0.10206-2.8746-0.13778-5.7506-0.24864-8.6242-0.26349-6.8482-0.43838-13.736-0.96628-20.569-0.50425-6.5315-1.7781-12.865-1.8147-19.445-0.024586-4.4503-1.2613-15.726 2.6363-18.749 6.6981-3.9087 4.0493 9.8818 3.9393 12.269-0.33029 7.1858 0.11783 14.055 0.84103 21.195 0.66243 6.5444-0.099272 13.059-0.35348 19.604-0.13499 3.4746-0.20875 6.9442-0.47038 10.413-0.081281 1.0817 0.043896 5.9558-0.52345 8.552 1.4604-0.062617 2.8497 0.002682 3.6247-0.020758 5.4261-0.16416 10.853-0.30791 16.278-0.51194 20.87-0.78461 41.752-0.42986 62.619-1.4208 19.736-0.9381 39.545-1.137 59.296-1.3796 1.728 0.15071 2.5008 1.9643 1.3917 3.3582-1.085 1.3638-6.1154 1.0647-7.6834 1.1913-5.563 0.44702-11.115 0.64828-16.695 0.7016-11.75 0.11176-23.456 0.61535-35.187 1.2845-20.843 1.188-41.717 1.0897-62.571 1.9379-5.062 0.20589-10.124 0.35984-15.189 0.49247-2.6706 0.070021-9.6642 1.6787-10.987-1.5122-0.9345-2.2547 0.36455-3.2925 2.2646-3.7648zm115.45-81.159c6.3145-0.058428 12.594 0.051936 18.899 0.41364 2.7963 0.16045 5.5913 0.31533 8.3894 0.43358 1.6167 0.068631 5.3097-0.4614 6.7273 0.28843 5.5662 2.9446-5.7736 3.2673-7.1522 3.2442-5.7847-0.09738-11.558-0.54765-17.342-0.68955-21.275-0.52261-42.708 0.77209-63.964 1.6439-10.225 0.41966-20.445 0.47948-30.666 1.0536-5.5866 0.31394-11.17 0.67285-16.758 0.96731-2.576 0.13587-5.1529 0.26756-7.7326 0.33248-1.5888 0.040344-4.8244 0.69836-6.2931 0.097844-1.2506-0.51148-2.2619-1.2265-1.5744-2.742 0.74037-1.6309 3.9625-0.93671 5.3264-0.96314 4.9237-0.095526 9.8368-0.3719 14.752-0.67285 11.16-0.68306 22.296-1.482 33.478-1.6726 21.31-0.36355 42.591-1.5372 63.91-1.7348zm29.313 7.2621c0.003711-2.9219 3.5075-3.5094 5.0615-1.5224 1.4863 1.9008 0.52976 7.6555 0.56594 9.9296 0.11968 7.4937 0.82804 14.944 1.5011 22.404 0.668 7.3981 1.1407 14.8 1.6561 22.209 0.2389 3.4245 2.8705 17.093-0.95468 19.088-4.882 2.5463-3.9607-10.409-4.0975-12.771-0.43884-7.6022-0.9904-15.215-1.6784-22.798-1.1119-12.259-2.0634-24.231-2.0541-36.539z" fill="#69A1AC"/>
            <path d="m86.043 187.61c6.6939 2.379 13.35 4.8642 19.977 7.4246 3.546 1.3698 7.0729 2.7842 10.611 4.1735 1.7721 0.69558 9.1409 2.4424 9.5649 4.2119 0.59795 2.4985-7.2571-0.57037-8.5068-0.9701-3.5302-1.1282-7.0163-2.3914-10.502-3.6476-7.8003-2.8101-15.567-5.7093-23.398-8.4341-0.73252-0.25491-1.4654-0.50894-2.1985-0.76211-8.3121 3.7335-16.608 7.5029-24.876 11.332-4.4334 2.0533-8.8431 4.1544-13.241 6.2838-3.2602 1.579-9.1609 6.0835-12.752 6.0051-1.3587-0.030142-2.2744-0.32136-2.4164-1.9685-0.18092-2.1062 3.212-2.9715 4.5828-3.6569 4.7001-2.3506 9.4295-4.6418 14.172-6.9043 9.4197-4.493 18.928-8.8064 28.469-13.034 0.054909-0.02433 0.10982-0.048668 0.16473-0.073014-5.2918-1.7909-10.598-3.5392-15.917-5.2505-3.0394-0.97798-24.35-6.237-23.573-9.0601 0.87258-3.1644 19.747 4.2968 22.65 5.2219 7.147 2.2777 14.274 4.6197 21.364 7.0682 17.014-7.6437 34.209-15.788 51.956-21.35 1.1175-0.34964 1.824 0.80269 1.5703 1.7695-0.33957 1.2942-4.3202 2.3418-5.4247 2.8352-4.3708 1.9518-8.7638 3.8553-13.135 5.8085-9.5218 4.2546-19.062 8.4693-28.582 12.727-0.18655 0.083425-0.37309 0.16686-0.55963 0.25032z" fill="#89C5CC"/>
            <path d="m23.108 241.13c4.3517 0.76281 7.4213 4.9372 6.944 9.3091-0.64527 5.9068-6.5325 8.614-11.971 7.8433-6.1711-0.87457-7.4691-6.0914-4.4793-11.11 0.66197-1.1111 1.4232-2.4405 2.6265-3.0258 0.82711-0.40204 1.8811-0.046371 2.5472-0.37051 2.3357-1.1366 0.93149-2.9478 4.3327-2.646m-1.9813-3.8586c-5.3101 0.67842-15.122 6.8231-14.625 12.971 0.43095 0.71273 1.079 1.0044 1.9442 0.87503-0.20829 1.3318-0.14056 2.6492 0.20365 3.9527 0.50425 1.6921 1.5104 3.0791 2.8589 4.1809 2.7768 2.2694 6.5728 2.8264 10.031 2.4285 6.4569-0.74241 11.546-5.1551 11.908-11.871 0.35395-6.5551-5.3681-13.416-12.321-12.538" fill="#89C5CC"/>
            <path d="m46.846 245.27c-2.3825 1.2627-6.1516 3.2024-7.5489 5.6008-1.4761 2.5328 0.052419 5.304 3.1623 4.1057 2.4688-0.95108 4.0391-3.9736 6.6726-4.9423 2.3241-0.85463 3.2607-0.4192 5.717 0.43218 2.531 0.87689 4.7433 1.7246 7.4793 1.5094 3.4388-0.27035 6.417-2.2643 9.783-2.7178 2.8339-0.3821 5.171 0.72062 7.8852 1.1593 3.1489 0.5087 5.2076-0.68306 8.1538-1.3035 2.004-0.42245 5.536 1.2956 6.9978 0.65291 3.2867-1.4449-0.19019-3.2117-2.0096-3.7955-3.0649-0.98308-4.9511-0.11546-7.8662 0.69975-3.1651 0.88524-4.5322 0.2198-7.5577-0.59309-6.121-1.6448-10.85 2.332-16.652 1.6091-5.3718-0.66961-8.5861-5.3981-14.217-2.4169" fill="#89C5CC"/>
            <path d="m146.94 242.34c5.8919 5.5238-0.72691 13.383-7.2237 8.9683-2.286-1.5539-2.3227-4.0496-0.54321-6.2824 1.6273-2.0422 5.203-2.8384 7.7669-2.6858zm-2.184-4.4637c-5.5045 1.0707-10.697 3.5966-11.195 9.9495-0.48662 6.1985 5.8714 9.0773 11.213 8.6706 11.992-0.91306 11.125-20.774-0.017628-18.62z" fill="#89C5CC"/>
        </g>
        <path d="m562.14 96.006c-4.403 0.085079-15.276 1.6866-16.892 6.8951-1.227 3.9537 2.4176 3.0856 4.3712 1.647 2.6428-1.9454 4.9601-3.1097 8.2345-3.7016 12.474-2.2562 24.459 5.8345 36.812 6.8578 4.6797 0.38763 10.327 0.64014 14.795-0.87536 3.1819-1.0792 3.5972-3.4323-0.034071-3.7908-3.0852-0.30438-6.4992 0.65516-9.6623 0.62786-13.089-0.11192-24.723-7.906-37.625-7.6599" fill="#C1DEE2" opacity=".5"/>
        <g transform="translate(44 343)" opacity=".5">
            <path d="m55.509 0.3617c-8.4242 0.094634-16.844 0.40544-25.252 0.93753-7.9954 0.50657-16.67 0.122-24.536 1.6719-2.2333 0.43977-5.2502 2.4753-2.2806 4.7141 2.0873 1.574 9.7238-0.23659 12.216-0.38967 9.179-0.5641 18.363-1.24 27.555-1.5647 8.702-0.30756 17.403-0.41611 26.11-0.50286 1.3292-0.012989 3.5357-0.43931 4.8594-0.053348 1.9018 0.55482 1.4507 0.70558 1.593 3.1197 0.25824 4.3741 0.18684 8.7639 0.10014 13.142-0.083918 4.2367-0.24063 8.473-0.22533 12.712 0.010664 3.0241-0.95601 9.0334 0.56146 11.66 2.1842 3.7803 4.45-0.32565 4.6132-2.8376 0.31249-4.8046 0.17247-9.668 0.17386-14.479 9.273e-4 -4.5155 0.033382-9.0311-0.12564-13.544-0.11544-3.2602 0.35051-8.9513-1.4057-11.915-1.7887-3.0186-6.0954-2.3677-9.2379-2.5115-4.902-0.22545-9.8128-0.20968-14.719-0.15865" fill="#89C5CC"/>
            <path d="m1.9096 5.8104c0.0092727 8.4842-0.97224 16.912-1.2472 25.386-0.12611 3.8962-0.38203 8.1747 0.60365 12 0.99496 3.8619 4.1551 4.6988 4.519 0.38735 0.73718-8.7305 0.55636-17.783 1.1303-26.584 0.20261-3.1072 1.5212-8.8015 0.29024-11.711-1.084-2.563-5.3007-3.0543-5.2961 0.52188" fill="#89C5CC"/>
            <path d="m80.906 43.208c-14.63 1.9368-29.924 1.2307-44.659 1.535-7.069 0.14613-14.137 0.1554-21.207 0.22916-2.4675 0.025514-8.7335-0.91294-10.868 0.4741-3.398 2.2081 0.28884 3.912 2.5384 3.9607 13.952 0.30571 28.06-0.33586 42.009-0.79372 6.2674-0.20551 12.555-0.30617 18.806-0.83872 3.8482-0.32797 8.0533-0.64574 11.79-1.6798 0.79606-0.22081 2.5296-0.17489 2.7081-1.2609 0.10988-0.67172-0.089481-1.7679-1.1183-1.6259" fill="#89C5CC"/>
            <path d="m20.07 55.54c-4.0661 0.023659-16.319-1.8649-18.003 2.1-2.2449 5.2879 6.5127 4.0535 8.8679 3.9932 5.3494-0.13731 10.695-0.15216 16.046-0.14984 5.2502 0.0023194 10.5-0.031545 15.749-0.15633 1.5207-0.036648 5.0606 0.59471 5.9354-1.2367 0.66485-1.3917 0.13955-2.4897-1.0868-3.2264-2.9506-1.7735-10.616-0.74501-14.07-0.90459-4.4727-0.20597-8.9602-0.41936-13.438-0.41936" fill="#89C5CC"/>
            <path d="m69.537 56.519c-2.3237 0.13824-7.0241-0.8197-9.1058 0.24354-2.3659 1.2089-1.5323 3.1016 0.51046 3.9334 1.4145 0.57569 7.2174 0.2737 8.5953-0.39338 1.4363-0.69584 3.0604-3.9719 0-3.7835" fill="#89C5CC"/>
            <path d="m95.013 6.6429c-2.4818 0.681-1.7289 14.771-1.7929 17.004-0.17525 6.1197-0.86329 13.817 1.1702 19.71 1.2968 3.7571 3.7874 3.2477 3.3632-0.7079-0.37276-3.4718-1.0121-6.9037-1.2889-10.398-0.62591-7.9071-1.4776-16.341-0.88647-24.255 0.25175 0.45972 2.6061 4.7248 3.1601 4.4065-0.16737 0.099273-2.7155-6.0269-3.7253-5.7606" fill="#89C5CC"/>
            <path d="m122.93 1.4535c-5.0226 0.074223-10.045 0.16329-15.066 0.30246-3.9924 0.11133-10.266-0.54461-13.927 1.1347-4.3596 1.9994-2.2913 6.4546 1.8035 6.5488 3.6224 0.083501 7.4854-0.73342 11.141-0.85867 9.8731-0.33818 19.764-0.41008 29.642-0.49451 8.9333-0.077006 18.246 0.87583 27.101-0.46575 1.3135 11.663-2.2389 23.375-1.0307 35.172 0.18731 1.831 0.10339 4.4181 2.435 4.8352 2.9427 0.52652 3.0637-2.3881 3.1754-4.4752 0.31852-5.9592 0.14604-11.923 0.58232-17.89 0.40429-5.5296 1.2003-11.181 0.52762-16.72-0.82712-6.8155-4.093-6.2691-9.8661-6.5525-12.193-0.59796-24.311-0.71532-36.517-0.53626" fill="#89C5CC"/>
            <path d="m106.1 42.866c-2.5593 0.064481-6.8099-0.72414-8.4497 1.7299-1.7062 2.5533 0.31805 4.7804 2.799 5.3046 2.9367 0.62023 6.7658-0.23009 9.8137-0.23937 3.174-0.0092779 6.349 0.025978 9.523 0.038503 13.608 0.053348 27.275 0.25932 40.873-0.30339 1.899-0.078398 7.2888 0.55853 8.6032-1.2632 1.1665-1.6157 0.35051-3.0649-1.1855-3.8879-2.5203-1.3504-7.6968-0.83686-10.5-0.94402-3.462-0.13175-6.9281-0.17489-10.392-0.2287-13.672-0.21107-27.415-0.54461-41.085-0.20643" fill="#89C5CC"/>
            <path d="m117.61 54.67c-5.0926 0.086748-10.526-0.13685-15.568 0.63553-4.4333 0.67914-4.979 4.9646-0.20678 5.4661 4.3855 0.46111 9.7025-0.40034 14.109-0.68332 1.5652-0.10066 3.3855 0.042214 4.1356-1.6881 0.78308-1.8078-0.714-3.5414-2.4702-3.7302" fill="#89C5CC"/>
            <path d="m156.11 55.12c-2.7183 0.067728-10.658-1.1008-12.004 2.0036-2.2412 5.1687 8.5068 3.205 10.569 3.129 2.5987-0.095562 12.727 1.4218 12.729-2.7152 0.002319-4.0568-8.8049-2.479-11.294-2.4174" fill="#89C5CC"/>
            <path d="m1.4701 80.804c0.0064909 9.4027-0.57862 18.893 0.27911 28.272 0.35468 3.8791 0.29394 11.31 2.5407 14.598 1.5949 2.3343 3.8069 2.1706 4.6781-0.63229 0.58232-1.8737-0.34912-5.621-0.45297-7.6255-0.10014-1.9238-0.21698-3.8466-0.306-5.7708-0.22857-4.9572-0.21049-9.9069-0.14234-14.867 0.058418-4.2544 1.0826-9.8833 0.11684-13.975-0.90038-3.8132-6.7134-4.7048-6.7134 0" fill="#69A1AC"/>
            <path d="m95.967 72.532c-16.313 0.40915-32.663 0.043606-48.961 0.85125-8.038 0.39802-16.045 1.2725-24.042 2.1441-3.9293 0.42864-7.8563 0.87027-11.779 1.3536-1.1837 0.14566-11.019 0.52698-7.3199 4.2674 1.6153 1.6334 6.7556-0.072831 8.7896-0.31359 3.9381-0.46482 7.8841-0.87027 11.828-1.2873 7.5044-0.79372 15.018-1.5457 22.554-1.9627 17.749-0.98346 35.572-0.68842 53.339-1.3439 4.806-0.17721 9.5977-0.30431 14.406-0.11505 1.2625 0.049637 10.54 0.52095 6.5117-2.9054-1.9046-1.6208-9.0858-0.78444-11.466-0.83315-4.6197-0.095562-9.2421 0.028761-13.86 0.14473" fill="#69A1AC"/>
            <path id="Wireframy-Stuff" d="m121.37 122.14c-0.002522 0.003803-0.005064 0.007592-0.007625 0.011367-0.88879 1.31-4.1732 0.94542-5.6114 1.0433-4.3772 0.29736-8.6732 0.79929-13.011 1.4497-8.644 1.2957-17.213 2.0922-25.951 2.3083-17.281 0.42725-34.633 0.027834-51.889 1.2117-3.8217 0.26256-7.5855 0.71254-11.345 1.432-2.6844 0.51446-7.8577 2.2745-8.1716-2.1604-0.37879-5.3441 13.03-5.3348 16.863-5.6915 16.461-1.5313 33.193-1.2084 49.705-0.97835 7.9847 0.11087 15.955 0.35488 23.933-0.13314 7.9705-0.48753 16.211-0.35953 24.123-1.2167-1.019-3.9511-0.86992-8.8918-1.1558-12.929-0.7344-10.365-0.53782-20.765-1.0107-31.141-0.20817-4.5712 6.0184-5.2638 7.8651-1.5638 1.8652 3.7376 0.65326 11.153 0.77381 15.297 0.27911 9.5943 2.0581 20.335 0.17896 29.824-0.65364 3.3002-3.4375 5.0346-5.2902 3.2359z" fill="#69A1AC"/>
            <path d="m131.41 78.693c-2.2037 0.29968-4.042 2.1859-3.0581 4.5782 1.2393 3.0121 4.9303 1.8352 7.3685 1.6445 7.7501-0.60724 15.842 0.60538 23.498-0.30942 2.091-0.25004 5.1245-1.3889 3.2473-4.1987-1.4113-2.1116-6.553-1.741-8.7386-1.9433-7.4752-0.69167-14.852-0.50704-22.317 0.2287" fill="#C1DEE2"/>
            <path d="m144.49 91.834c-3.0057 0.20226-10.002 0.043142-11.269 3.463-2.2718 6.135 6.6272 3.9733 9.3367 3.6244 3.1476-0.40544 10.568 0.68007 12.244-2.3724 2.9969-5.4582-7.6755-4.8969-10.311-4.715" fill="#C1DEE2"/>
            <path d="m136.76 105.3c-1.4257 1.4265-1.428 3.9737 0 5.4002 1.7484 1.7466 5.5576 1.3838 7.8549 1.5114 3.2042 0.17906 12.407 1.8737 13.998-1.8992 2.1466-5.0908-6.1867-4.9841-8.9277-5.2731-3.168-0.33354-10.3-2.3663-12.925 0.26071" fill="#C1DEE2"/>
            <path d="m24.437 18.159c0 5.473 8.548 5.473 8.548 0 0-5.4433-8.548-5.5264-8.548 0" fill="#89C5CC"/>
            <path d="m40.651 18.221c0 6.257 9.7363 6.2445 9.7363 0 0-6.2352-9.7363-6.2988-9.7363 0" fill="#89C5CC"/>
            <path d="m30.842 26.54c-4.7328 1.3068-0.37276 5.3176 1.8249 6.2338 3.4926 1.4566 8.2592 2.5301 11.753 0.34653 1.39-0.86887 2.5185-2.0235 1.4999-3.7098-1.0854-1.7953-2.5713-0.99691-4.2237-0.8313-2.0933 0.21061-3.7851 0.17814-5.8066-0.49312-1.5087-0.50101-3.4017-1.9989-5.0471-1.5462" fill="#89C5CC"/>
            <path d="m116.69 18.505c0 3.7019 5.7481 3.7019 5.7481 0s-5.7481-3.7019-5.7481 0" fill="#89C5CC"/>
            <path d="m129.4 19.062c0 4.1129 6.3856 4.1133 6.3856 0s-6.3856-4.1129-6.3856 0" fill="#89C5CC"/>
            <path d="m128.93 27.988c-3.3544 0.43235-13.056 1.4158-13.599 5.5505-0.83732 6.379 9.7929 1.2163 12.219 0.71532 3.0901-0.63785 5.8497-0.47132 8.9347-0.34746 1.6937 0.067729 3.9465 0.34235 3.7689-2.2378-0.29116-4.2367-8.3918-4.0563-11.324-3.6805" fill="#89C5CC"/>
            <path d="m44.592 86.815c-2.4313 0.64852-5.6118 4.8519-3.939 7.4242 2.7429 4.2191 3.9525-2.2587 5.1004-2.8822 2.0887-1.1347 3.7842 3.0111 5.967 0.8364 3.4443-3.4314-4.96-5.9592-7.1284-5.3784" fill="#69A1AC"/>
            <path d="m72.45 83.696c-2.8833 0.026442-8.9704 4.1087-9.4016 7.1226-0.25593 1.7911 0.93144 3.5117 2.862 3.5358 2.6288 0.032009 3.4643-3.386 5.743-4.1008 2.4582-0.77099 2.0933 1.0043 4.2163 1.9247 1.5536 0.67404 3.4967 0.39199 4.0364-1.5183 1.0181-3.6031-4.4935-7.0206-7.4562-6.964" fill="#69A1AC"/>
            <path d="m50.38 100.95c-4.6118 2.7026 2.9765 8.4953 5.6072 9.2199 3.9715 1.0929 11.965-0.94727 12.906-5.7987 0.37462-1.9307-0.83315-3.6796-2.964-3.334-1.7544 0.28483-2.8796 2.4855-4.5047 3.2737-2.1935 1.0637-4.1435 0.99134-6.0073-0.61002-1.5184-1.3045-2.3316-4.3286-5.0369-2.7509" fill="#69A1AC"/>
            <path d="m53.722 140.89c-4.1203 0.87862-8.3088 0.28901-12.449 1.1152-4.2219 0.8429-6.745 2.4378-10.667 0.83083-0.18453-0.077934-0.36859-0.15587-0.55265-0.2338-3.0359-1.3073-6.2178-1.6946-9.3955 0.38967-1.8805 1.233-7.5892 5.4985-6.9012 8.1014 1.491 5.6428 7.9147-3.2055 9.5527-4.0679 3.1235-1.6445 5.265 0.45647 8.4808 1.0493 3.8519 0.71022 6.9513-1.3253 10.58-2.1358 4.2436-0.9482 9.0177-1.2785 13.335-1.786 1.7057-0.2004 8.1665 1.1486 8.7497-0.97418 1.0019-3.6467-9.1127-2.6326-10.732-2.2889" fill="#C1DEE2"/>
            <path d="m83.449 152.25c0.26937 0.20411 0.053318 0.040358 0 0m11.54-11.585c3.5273-0.35766 14.813-2.8775 17.13 0.76728 1.5091 2.3742-0.886 11.137-3.1708 12.27-1.8263 0.90506-6.0801-0.095562-8.0839-0.16654-3.7285-0.13128-7.465-0.18973-11.189-0.42214-1.249-0.077934-5.2683 0.15169-6.2475-0.95377-1.1563-1.3054-1.1048-8.2643-1.377-9.99 3.2431 1.0498 9.5472-1.1602 12.938-1.5049m7.5322-3.5734c-4.5177 0.19576-9.0344 0.53533-13.518 1.1412-2.4995 0.33772-5.0318 1.2358-7.3403 1.6612-0.74413 0.13731-1.9519-0.24308-2.8643 0.19762-2.6664 1.2878-0.3315 9.9974 0.31156 12.324 0.98754 3.5743 3.4731 4.1532 6.9554 4.49 4.5872 0.44441 9.2685 0.30478 13.87 0.24818 4.4356-0.054275 10.416 0.92872 12.905-3.5219 1.6088-2.8775 3.3345-9.5789 1.9593-12.786-1.8091-4.2196-8.5638-3.9106-12.279-3.7548" fill="#C1DEE2"/>
            <path d="m153.11 154.64c-0.24155 0.31034-0.24155 0.31034 0 0m0.98986-1.1931c-0.074645 0.11319-0.42144 0.4792 0 0m-10.773-0.32797c1.9913-0.37483 3.9835-0.74548 5.9772-1.1092-1.8879 2.6428-3.876 1.5503-7.101 1.3202 0.37462-0.070512 0.74923-0.14056 1.1238-0.21107m-9.5008-0.93521c0.5049-0.16886 1.0093-0.33772 1.5142-0.50657-0.0153 0.3841 0.067227 0.74409 0.24758 1.079-0.86421-0.093243-1.7275-0.19344-2.5899-0.29968 0.27586-0.090923 0.55219-0.18185 0.82805-0.27277m-4.4027-3.251c-0.028282-0.69352 1.0144-0.21757 1.6121-0.26396-1.1521 1.0141-1.6895 1.1022-1.6121 0.26396m15.745-7.8644c0.15161-0.19344 0.35236-0.1837 0.60226 0.029225-0.27262 0.091387-1.3227 0.53673-0.60226-0.029225m10.211-1.201c0.026891 0 0.59345 0.76496 0 0m-0.28653-0.2505c0.14836 0.11319 0.14836 0.11319 0 0m-1.2745-0.14891c2.0877 0.3521 1.9292 2.8024 0 0m-24.529-0.167c-0.42423 0.3521-0.27911 0.010669 0 0m7.9842-5.2165c-3.5445 0.20643-10.051-0.001392-13.011 1.8871-3.863 2.4651-1.8304 10.951-1.4846 14.671 0.51092 5.4985 3.098 7.0642 8.2763 7.6413 6.1798 0.68888 12.529 0.81738 18.741 0.65409 5.5942-0.14705 8.7803-2.0713 9.8049-7.9613 0.31388-1.8022 1.1104-4.5902 1.0854-6.3164-0.017154-1.1973-0.61385-1.7433-0.83964-2.7616-1.2847-5.7968-3.4332-6.4843-9.3747-6.7371-4.373-0.18602-8.9069-1.3012-13.198-1.0767" fill="#89C5CC"/>
        </g>
        <g transform="translate(297 339)" opacity=".5">
            <path d="m72.032 4.913c9.0117 0.19203 19.236 5.1796 17.811 15.746-1.0438 7.7404-7.7454 14.024-15.507 14.566-8.3419 0.58211-17.162-5.8201-18.295-14.314-1.2751-9.5535 7.1786-16.188 15.991-15.997m-4.4194-4.3011c-3.6532 0.54546-7.1443 2.4639-10.361 4.1824-1.2278 0.65632-7.4534 4.6573-2.5705 5.6513-11.765 18.974 15.923 36.598 31.49 24.266 6.9904-5.5377 10.671-16.036 6.1519-24.255-4.6734-8.4997-15.756-11.19-24.71-9.8453" fill="#89C5CC"/>
            <path d="m65.459 16.762c0 3.5437 5.5003 3.5437 5.5003 0 0-3.5437-5.5003-3.5437-5.5003 0" fill="#89C5CC"/>
            <path d="m75.657 17.329c0 3.8419 5.9633 3.8419 5.9633 0 0-3.8419-5.9633-3.8419-5.9633 0" fill="#89C5CC"/>
            <path d="m68.775 24.927c-0.80277 2.9147 8.348 4.4096 8.6525 1.0362 0.14507-1.6118-8.0944-3.0696-8.6525-1.0362" fill="#89C5CC"/>
            <path d="m95.599 23.126c10.529-1.2635 21.386-0.67951 31.966-0.37663 2.6479 0.076532 5.2954 0.15074 7.9438 0.19481 1.6834 0.028294 5.3195 0.83629 6.7888 0.048238 6.0171-3.2269-5.7862-4.7872-7.4576-4.9356-10.524-0.86597-26.765-1.1749-37.32-0.76625-3.1216 0.12106-3.7965 6.0604-1.9202 5.8354" fill="#89C5CC"/>
            <path d="m142.98 75.469c0.090381-11.032 0.48574-22.139 1.3339-33.138 0.3453-4.4834 0.75966-8.9607 1.1031-13.444 0.16176-2.1118 0.91215-5.0697-0.32908-6.9227-1.2792-1.9091-4.0852-2.3062-5.776-0.61411-2.0241 2.6202-1.4359 7.0177-1.6876 10.187-0.38702 4.8735-0.85468 9.7432-1.0869 14.627-0.44912 9.4529-0.55434 19.07 0.20533 28.509 0.35874 4.4542 1.1365 8.8002 2.171 13.144 0.47137 1.9773 4.2187 10.786 3.4312 12.001-1.2213 1.8836-10.246 1.1716-12.204 1.224-5.0238 0.13498-10.049 0.22264-15.074 0.31865-4.3021 0.082098-8.6043 0.141-12.907 0.17904-1.7084 0.015306-11.746-0.28897-9.5197 2.244-24.899 1.7352-50.275-1.1614-75.022-2.155-1.25-0.050557-3.2954-0.40539-5.1832-0.50743-0.22618-0.91189-0.41204-1.7268-0.45793-2.2932-0.32537-3.9773-0.41019-7.9681-0.76291-11.945-0.64518-7.2752-1.8961-14.477-2.6405-21.74-0.74251-7.2552-0.66789-14.532-1.1003-21.805-0.074159-1.2463-0.24936-11.454-2.8254-13.934 1.2213 0.4629 3.1907 0.5232 4.3248 0.43183 9.1804-0.74074 18.294-2.3358 27.395-3.7051 2.6039-0.39147 8.513-0.1141 10.673-1.4156 1.8693-1.1271 2.609-5.0775-0.64286-4.758-9.0756 0.97219-18.102 2.481-27.106 3.9667-2.4083 0.39704-4.8106 0.82191-7.2124 1.2561-1.6041 0.28989-5.8381 0.26763-7.0822 1.2347-1.511 1.174-1.6714 1.9727-1.1592 2.5038-0.71192-0.19574-1.5652 0.11178-2.59 1.1373-1.9374 2.5218-0.11587 8.7325 0.11495 11.689 0.27763 3.5469 0.4139 7.0998 0.57566 10.653 0.31193 6.8763 1.0317 13.657 2.1381 20.451 1.2398 7.6105 2.2943 15.252 3.5374 22.86 0.32352 1.981 0.7453 3.9129 1.2839 5.8266-3.3487 1.7129-1.0721 4.4365 1.5838 4.9198 0.019003 0.003247 0.038933 0.00603 0.057936 0.009277 0.8278 2.0191 1.9856 3.8897 2.8899 1.1842 0.06906-0.20733 0.1015-0.4629 0.10985-0.75001 6.8592 0.77645 14.399 0.29407 21.152 0.57005 14.628 0.59788 29.346 1.4949 43.989 1.0404 5.7969-0.17997 11.611-0.69482 17.36-1.4685 3.3677-0.45316 6.7484-0.99352 10.062-1.7449 0.23731-0.05334 0.59837-0.10993 1.015-0.17857 0.068133-0.001856 0.13719-0.003711 0.20162-0.004639 5.0743-0.076532 10.144-0.21243 15.215-0.42348 4.2558-0.17672 8.5306-0.26763 12.773-0.66884 2.635-0.24954 8.2038-0.20316 9.8214-2.853 1.4711-2.4096-0.98816-8.6161-1.3376-11.323-0.61413-4.7654-0.84912-9.5753-0.80972-14.377" fill="#C1DEE2"/>
            <path d="m91.556 43.614c-4.0546 0.34741-7.8038 2.2514-11.896 2.2751-3.4345 0.019481-6.8161-1.007-10.27-0.8553-4.0509 0.17672-6.2799 2.7964-9.8283 3.6731-2.825 0.6976-4.6048-1.4652-7.0896-2.4217-3.1374-1.2083-5.4548-0.58443-8.144 1.2426-1.9759 1.3428-6.5839 4.3558-6.5482 7.0715 0.10568 8.2256 9.7027-3.1373 11.637-3.2751 2.5705-0.18275 5.4423 2.7473 8.1774 2.9142 3.6162 0.22125 5.9346-2.11 9.2643-2.9592 3.3673-0.85901 7.0071 0.19342 10.383 0.51995 3.8516 0.37246 7.2221-0.48609 10.948-1.4054 3.6111-0.89102 6.6882-0.84371 10.357-0.095549 2.4764 0.50511 8.6455 3.4412 9.7287-0.33396 1.4753-5.1411-13.885-6.5915-16.72-6.3503" fill="#89C5CC"/>
            <path d="m92.79 59.302c-8.3081 0.80614-16.667 1.5135-25.013 1.7398-3.6148 0.098332-17.511-1.4509-16.279 3.1424 1.0563 3.9384 19.967 1.4587 23.818 1.1586 4.2521-0.33025 8.4977-0.79222 12.729-1.3275 1.4994-0.18971 5.1207 0.0064936 6.1788-1.2509 1.0086-1.1999 0.51123-3.6573-1.4345-3.4625" fill="#89C5CC"/>
            <path d="m35.475 80.221c-0.1891 0.079779-0.1891 0.079779 0 0m1.7525-0.023655c2.0713-0.0654 1.6273-1.1577 3.6936-0.5886 0.95294 0.26253 1.0507-0.12709 1.7895 0.78387 1.4415 1.7769 0.083892 5.6467-1.3372 7.0785-5.2611 5.302-11.575-7.0382-4.1459-7.2738m0-5.2019c-14.403 0.48377-8.3767 22.733 4.1589 18.191 5.1772-1.8757 8.4314-10.326 5.3862-15.074-1.4813-2.3099-3.3701-2.7208-5.8516-2.8808-0.57612-0.037106-1.301 0.80011-1.6607 0.76207-0.85468-0.090447-0.77496-1.045-2.0329-0.9977" fill="#89C5CC"/>
            <path d="m71.671 80.983c-0.25677-0.079315 4.5478 1.3177 4.0222 0.77089 1.1217 1.1665-0.38655 3.9254-1.6556 4.4068-3.073 1.167-4.7976-3.6118-2.3666-5.1777m2.1321-6.033c-4.5098 0.63916-7.9901 2.5172-8.6066 7.5321-0.5687 4.629 2.5589 9.3165 7.4923 9.4069 10.753 0.19666 11.081-18.33 1.1142-16.939" fill="#89C5CC"/>
            <path d="m122.89 81.186c0.62989 8.22-7.8937 0.69621 0 0m-3.6579-8.7942c-0.7453 1.2746-0.10985 2.6267 1.015 3.3674-10.054 2.1248-7.7769 17.254 2.4542 15.019 5.2027-1.1368 6.1593-6.6077 5.3839-11.125-0.36894-2.148-5.7218-12.615-8.8532-7.2617" fill="#89C5CC"/>
        </g>
        <path d="m440.02 419.29c-2.9972 0.53292-10.082 3.8431-10.021 7.3982 0.095873 5.5493 6.1177-0.51248 7.4571-1.3273 7.1956-4.3794 16.516 1.2955 24.008 2.503 3.4351 0.55337 10.155 1.5764 13.189-0.72594 5.3959-4.0941-7.0834-3.0692-8.6728-3.2337-8.6388-0.89233-17.233-6.1735-25.962-4.6142" fill="#C1DEE2" opacity=".5"/>
        <g transform="translate(579 371)" opacity=".5">
            <path d="m2.5861 9.268c-0.0027918 5.6782-0.28989 11.474 0.75659 17.084 0.31687 1.6984 0.56674 4.9516 2.3586 5.833 1.7998 0.88512 3.5447-0.10937 3.9919-1.9542 0.52161-2.1465-0.62258-5.3589-0.73844-7.6125-0.15913-3.0785-0.16984-6.1606-0.17123-9.2428-9.3061e-4 -2.2258 0.73146-5.8066-1.8961-6.9517-1.9538-0.85176-4.3013 0.73173-4.3013 2.844" fill="#C1DEE2"/>
            <path d="m92.353 0.28709c-18.813 1.8884-37.896 2.2809-56.777 3.2657-8.7277 0.45507-19.275-0.12559-27.498 3.2527-1.5262 0.62746-6.9949 4.1193-2.5555 5.541 1.3838 0.44349 2.7895-1.0473 3.9258-1.5469 1.8924-0.8309 4.0831-1.0881 6.1011-1.4125 17.156-2.755 35.101-2.2754 52.434-3.5627 4.4413-0.32995 8.8846-0.66963 13.317-1.1057 3.1664-0.31141 9.8217-2.5937 12.744-1.4264 4.9932 1.9945 4.8764 14.954 4.9751 19.412 0.051184 2.305-2.186 10.579 2.2614 9.7405 3.5596-0.67149 2.2707-9.2674 1.9934-11.619-0.72774-6.1634-1.9696-21.445-10.921-20.539" fill="#C1DEE2"/>
            <path d="m99.291 32.145c-16.341 1.4755-33.059 0.027805-49.467 0.608-8.6007 0.30493-17.193 0.7892-25.794 1.0733-3.7201 0.12327-7.444 0.12837-11.166 0.15478-1.7803 0.012049-9.8817 1.0913-4.8699 4.6207 2.219 1.5626 9.2908 0.304 11.837 0.27341 3.8244-0.044951 7.6468-0.2039 11.468-0.35359 8.8524-0.34617 17.699-0.8258 26.556-1.0654 8.4723-0.22939 16.949-0.27851 25.421-0.5079 4.2157-0.11446 8.4886-0.24376 12.667-0.85917 0.94271-0.13902 4.0049-0.24932 4.6596-1.3008 0.61886-0.99402 0.18426-2.7874-1.3117-2.6433" fill="#89C5CC"/>
            <path d="m18.979 19.877c-0.087943 0.20807-0.087943 0.20807 0 0m7.0764-2.1507c0.25824 0.10937 0.25824 0.10937 0 0m-0.3313-0.05978c3.8136 3.8871-2.0511 8.5268-5.6232 4.7333-3.7918-4.0261 3.1683-4.7203 5.6232-4.7333m-4.0444-5.8807c-13.136 2.3375-8.4849 19.844 3.7834 17.314 5.3859-1.1103 8.4662-6.5365 6.6125-11.748-0.72448-2.0362-2.3028-4.2713-4.5014-4.9131-1.0963-0.31976-2.066 0.18351-3.1101 0.065805-0.99576-0.11215-1.5485-0.94073-2.7844-0.71783" fill="#C1DEE2"/>
            <path d="m71.95 16.713c-7.9209 0.025024-15.844 0.36146-23.763 0.51161-2.4294 0.045878-8.6728-1.0413-8.6826 2.7884-0.010702 4.092 6.9442 2.5808 9.2587 2.5256 7.8558-0.18768 15.732-0.532 23.556-1.28 1.9762-0.18907 8.8185 0.13717 8.8115-2.5506-0.0074449-2.8477-7.5845-1.995-9.1805-1.995" fill="#C1DEE2"/>
            <path d="m90.869 43.421c-19.59 0.52551-39.151 0.70856-58.725 1.7114-7.3216 0.3749-14.633 0.65388-21.966 0.65388-1.4122 0-4.2557-0.54683-5.5846 0.34246-3.6071 2.4121 0.5002 4.4826 2.8509 4.6128 16.081 0.89254 32.394-1.3286 48.465-1.83 9.4085-0.29334 18.819-0.38 28.222-0.85871 2.5652-0.13068 5.1309-0.28222 7.692-0.48102 1.4727-0.114 5.3678 0.1988 6.558-0.66268 5.1975-3.762-5.76-3.5354-7.5124-3.4881" fill="#89C5CC"/>
            <path d="m0.9857 53c-0.18426 5.079-0.20334 10.07 0.46112 15.121 0.2615 1.9876 0.38155 4.243 2.7113 4.7481 2.1157 0.45832 3.1887-1.1419 3.6271-2.9163 1.0697-4.3329 0.12842-10.569 0.11586-15.07-0.0055837-2.2253-0.0079102-4.7162-2.7579-5.2194-2.0981-0.38417-4.0775 1.1321-4.1575 3.337" fill="#89C5CC"/>
            <path d="m111.63 65.245c-31.712 1.6711-63.382 3.1299-95.116 4.4715-2.475 0.10473-21.701-0.10473-14.98 6.6 2.0762 2.0705 7.4249 0.66824 10.11 0.53663 4.0347-0.19834 8.0712-0.34988 12.106-0.55517 15.997-0.81422 32.035-1.0339 48.02-1.9477 8.7966-0.5028 17.573-1.2897 26.324-2.3143 4.1622-0.48705 9.3289-0.43654 13.227-2.0678 2.0055-0.83924 4.1696-4.928 0.30943-4.7231" fill="#89C5CC"/>
            <path d="m93.4 39.48c-2.4117 2.4019-1.1716 7.1403-0.98971 10.109 0.24987 4.0855 0.55371 8.1732 1.0637 12.236 0.33176 2.6391 0.15634 6.7469 1.5644 9.0264 1.6486 2.6697 5.2789 2.3745 6.7697-0.20483 1.3187-2.2809 0.65143-7.0805 0.617-9.6084-0.046996-3.4955-0.26476-6.9966-0.47229-10.485-0.17356-2.9158 0.48718-7.5884-1.1167-10.084-1.6295-2.5358-5.1761-3.2365-7.4361-0.98893" fill="#89C5CC"/>
            <path d="m20.917 58.119c-0.28291 0.2178-0.28291 0.2178 0 0m5.6325-0.70578c5.2556 1.057-3.2427 7.1931-5.9285 2.9816-0.41924-0.65805-0.63747-1.4667 0.035829-2.0386 0.61467-0.52227 1.0009 0.40224 1.5816 0.15385 0.99994-0.4282 3.2441-1.1368 4.3111-1.0969m-0.72495-5.0378c-3.588 0.28407-8.5216 0.50559-10.298 4.1026-2.3861 4.8311 1.6946 9.5626 6.4152 10.298 4.5428 0.70763 11.326-1.8087 11.689-7.1069 0.29314-4.2718-3.7699-7.6209-7.8064-7.2932" fill="#89C5CC"/>
            <path d="m55.781 54.93c-3.7145 0.05978-11.016-1.0385-14.252 0.77205-3.2022 1.7916-1.7742 4.9817 1.147 5.745 1.931 0.5042 5.0867-0.30956 7.0973-0.39159 2.6443-0.10751 5.291-0.13068 7.9372-0.16729 4.4502-0.05978 8.8985-0.0092683 13.349-0.0092683 4.5456 0 9.1689 0.1242 13.707-0.20993 5.7414-0.42263 5.5869-4.7217-0.027918-5.2593-9.5388-0.91293-19.388-0.63024-28.957-0.47963" fill="#89C5CC"/>
            <path d="m46.293 103.08c0 2.0427 1.8124 0 1.7993 0 0.013029 0-1.7993-2.0427-1.7993 0" fill="#89C5CC"/>
            <path d="m5.297 86.637c0.11679 5.9373 0.19357 11.88 0.44716 17.813 0.080498 1.8759-0.45693 5.5392 1.817 6.4957 2.5308 1.0645 3.3176-1.589 3.6094-3.3871 0.92317-5.6963 0.018147-12.2-0.070726-17.964-0.02978-1.9352 0.389-4.6295-1.8091-5.5943-1.7928-0.78734-4.03 0.67427-3.9937 2.6373" fill="#89C5CC"/>
            <path d="m102.94 86.73c0.14983 0.35359 0.14983 0.35359 0 0m0.21171-0.060707c0.12144 0.050976 0.61327 0.2572 0 0m-47.964-4.7987c-9.1149 0.14273-18.235 0.25117-27.344 0.64137-3.8876 0.16683-7.8199 0.30122-11.694 0.66778-2.7439 0.25951-9.5606 0.36749-11.34 2.61-3.6727 4.6286 4.1156 3.3662 5.7931 2.9904 3.0529-0.68446 6.169-0.90366 9.288-1.0682 6.7674-0.35683 13.538-0.54776 20.313-0.684 18.374-0.3698 36.762-0.31373 55.141-0.39668 1.7793-0.007878 4.9951-0.72339 6.6385-0.0037073 1.6463 0.72154 1.5532 2.495 1.7244 4.5544 0.22754 2.7397-1.5797 7.961-0.20287 10.266 2.1362 3.5748 5.2421 0.53942 5.7172-2.0668 0.65562-3.6012-0.38388-7.9253-1.402-11.368-1.4359-4.8566-3.4298-5.0498-8.1275-5.4294-5.4883-0.44349-10.957-0.71227-16.463-0.76324-9.3447-0.085732-18.696-0.095-28.041 0.050049" fill="#89C5CC"/>
            <path d="m91.234 106.41c-19.769 2.2958-40.101 0.94305-59.977 1.0241-4.8331 0.019927-9.6705 0.05839-14.499 0.29288-2.5503 0.12327-8.5956-0.57973-10.343 1.3875-3.6829 4.1476 2.9514 4.7509 5.3734 4.579 4.8969-0.34802 9.8054-0.50698 14.715-0.54498 17.293-0.13346 34.683 0.67334 51.962-0.1798 7.2388-0.35729 14.316-1.5955 21.421-2.9793 1.5741-0.30678 12.349-2.3551 6.2049-4.8102-3.6312-1.451-11.043 0.78549-14.857 1.2308" fill="#89C5CC"/>
            <path d="m33.512 98.822c-0.13773 0.17702-0.13773 0.17702 0 0m-0.13261-0.030585c-0.046996 0.12698-0.19217 0.44071 0 0m-1.247-1.6085c0.028849 0.037073 0.14657 0.18768 0 0m-0.047926-0.012049c0.47601 0.56815 0.7966 1.2021 0.96132 1.9014-4.0961 1.1094-5.6744-2.204-0.96132-1.9014m-0.25918-0.15524c0.0013959 9.268e-4 0.57744 0.24329 0 0m-6.7288-4.9368c-2.6508 3.3014-4.8392 7.1486-1.5341 10.919 2.9552 3.3713 8.9008 3.8065 12.651 1.5557 3.8634-2.3194 3.5298-7.2019 0.83476-10.389-1.7351-2.052-3.1417-1.995-5.6595-2.33-1.7142-0.228-4.8378-1.5608-6.2923 0.24376" fill="#89C5CC"/>
            <path d="m52.5 98.189c0 4.396 18.981 2.5038 22.358 2.4992 2.8286-0.00417 19.932 1.5561 18.705-2.9677-1.0088-3.717-17.856-1.8694-21.444-1.875-3.1013-0.0041707-19.619-2.1336-19.619 2.3435" fill="#89C5CC"/>
        </g>
        <g transform="translate(358 501)" fill="#89C5CC" opacity=".5">
            <path d="m25.7 9.3757c9.5061 1.3804 19.394 5.8509 19.311 16.916-0.069626 9.3033-7.8724 19.205-17.892 18.649-9.0168-0.49953-17.507-10.36-18.636-18.81-0.58505-4.378 0.50935-9.0916 3.0846-12.693 3.3743-4.7187 8.7285-4.7112 14.132-4.0617m-4.4902-6.014c-6.8752 0.037383-11.906 2.5248-16.161 7.7743-1.5262 1.8822-3.3009 3.9084-4.4626 6.0411-1.085 1.9916-0.89486 7.0565 2.8285 4.6822-0.91682 9.8056 4.814 19.323 13.052 24.347 8.9551 5.4621 19.077 4.3972 26.53-3.2584 6.8224-7.0079 9.2234-18.845 4.2322-27.512-4.9883-8.6626-16.546-12.168-26.02-12.075"/>
            <path d="m41.826 0.73355c-4.4019 3.2262-8.421 7.4743-11.759 11.783-3.2631 4.2117-5.4201 9.4706-9.3397 13.143-1.9794-2.1561-4.2986-7.979-8.2472-5.6687-3.2766 1.9168-1.1668 5.2136 0.42897 7.378 4.121 5.5893 8.6972 7.8388 13.982 2.3164 4.8-5.015 7.5257-11.705 12.014-17.009 1.9687-2.3271 5.0098-4.6369 6.5776-7.2061 1.421-2.329-0.33645-7.1766-3.6561-4.7369"/>
        </g>
        <g transform="translate(477 137)" opacity=".5">
            <path id="Wireframy-Stuff" d="m43.825 44.023c0.1484-0.022617 0.29302-0.038569 0.43195-0.047369 3.6702-0.23282 7.3886-0.13655 11.066-0.22172 7.53-0.1745 15.357 0.23699 22.844-0.64478 1.5216-0.19718 2.0536 1.7547 1.3709 2.7666-0.76612 1.1359-3.2179 1.078-4.3529 1.246-3.3231 0.49203-6.6902 0.66376-10.043 0.81234-3.5214 0.15599-7.0457 0.27263-10.569 0.37076-3.052 0.084242-9.8246 1.3608-12.648 0.083317-2.2002-0.99548-2.1489-2.1008-1.2509-2.9572-0.54448-1.1967-0.45476-3.1565-0.5716-4.097-0.4885-3.9413-0.7828-7.8322-0.78975-11.807-0.013904-7.7864 0.0018538-15.873 2.1556-23.41-0.86252-0.3777-1.383-0.93454-1.3807-1.7372 0.011587-4.7666 17.498-3.6284 21.044-3.7229 4.358-0.11387 8.7169-0.12868 13.076-0.10507 2.8805 0.015275 6.7764-0.60636 9.6448 0.060173 5.5848 1.2965 5.2312 10.871 5.3457 15.501 0.20532 8.3044 0.086206 17.035-0.58861 25.32-0.23266 2.8605-2.3136 6.4862-4.6875 2.543-1.3237-2.1986-0.73367-7.3347-0.73553-9.7638-0.0064886-8.6358 1.3468-17.533 0.052372-26.124-0.42454-2.8166-0.33045-3.0068-3.1961-2.9476-2.2729 0.047213-4.5457 0.12266-6.8186 0.17034-4.6287 0.097203-9.2592 0.16062-13.886 0.33003-1.757 0.064802-8.0713 1.1678-12.996 1.1637 0.0023173 0.039344 0.0064886 0.078688 0.0074155 0.11896 0.067667 3.3294-1.5647 7.3703-1.7867 10.873-0.53392 8.4252 0.10335 17.048-0.68547 25.43-0.023893 0.25421-0.037031 0.52481-0.051816 0.79731z" fill="#89C5CC"/>
            <path id="Wireframy-Stuff" d="m110.12 46.458c-0.57268-0.58436-1.0881-1.4425-1.4191-2.5132-1.1879-3.8437-1.3-7.9915-1.3881-11.977-0.1881-8.5187-0.094632-17.052-0.14577-25.574-0.77271-1.0378-0.31387-2.2248 0.65035-3.0529 2.6052-2.2361 10.111-1.6687 13.417-1.8436 4.7589-0.2518 9.5211-0.30966 14.286-0.32725 5.0453-0.025458 10.098 0.065265 15.141 0.22033 1.8706 0.057396 14.88 0.38465 9.065 3.5387-0.33288 0.18058-0.70758 0.33145-1.1164 0.4567 0.24171 1.4331 0.27103 2.9128 0.23214 3.6256-0.24703 4.5352-0.35316 9.0788-0.55477 13.616-0.22432 5.0647-0.43844 10.129-0.61271 15.196-0.092694 2.6786 0.82405 8.907-1.2959 10.841-1.4286 1.3037-2.4048 1.0424-3.0626 0.15698-5.0731 1.4732-16.779 0.52385-18.912 0.52487-3.8204 0.0013886-24.569 2.4574-24.603-1.9626-0.002661-0.34287 0.10876-0.65021 0.31821-0.92546zm3.371-1.5632c5.7884-1.236 16.58-0.41023 18.851-0.4186 4.2292-0.016663 8.4597 0.042121 12.686 0.21107 1.3172 0.052619 4.5389-0.20096 7.0834 0.081067-0.022747-0.23032-0.038078-0.44083-0.047257-0.62267-0.23081-4.5611 0.020392-9.1699 0.16778-13.731 0.14785-4.5972 0.37448-9.1908 0.55153-13.787 0.09115-2.3641-0.50594-7.299 0.14094-10.701-3.072-0.058389-6.2936-0.42966-8.3657-0.42991-4.8641-4.6287e-4 -9.725-0.055545-14.589 0.040733-5.253 0.10415-10.562 0.16571-15.778 0.85863-0.2859 0.038034-0.62944 0.11138-1.0095 0.20031 0.79419 3.3215-0.16978 8.663-0.17312 11.74-0.009733 8.6224 0.30774 17.198 0.50101 25.775 0.006336 0.28101-2.24e-4 0.54206-0.018438 0.78376z" fill="#89C5CC"/>
            <path d="m61.284 48.123c-3.1275 1.827-1.4409 9.1352-0.35734 11.663 1.7811 4.1561 5.3953 7.4083 9.2949 9.5657 7.8822 4.3602 19.244 3.2021 25.205 10.762 0.061642 0.078225 2.1222 2.1181 2.5913-0.52351 0.38514-2.1681-3.4617-5.479-4.9522-6.5658-4.2389-3.0901-9.6754-4.0867-14.578-5.6304-5.2289-1.6464-10.967-4.6815-13.159-10.072-0.77631-1.9093 0.70355-11.986-4.0442-9.1986" fill="#C1DEE2"/>
            <path d="m132.78 51.637c-2.8661 0.79012-0.97051 4.7338-0.97514 6.7084-0.005562 2.4634-0.793 5.0416-2.3113 7.0074-3.85 4.9856-11.389 5.7327-17.041 7.162-4.104 1.0387-13.923 3.2656-14.307 8.8158-0.42917 6.1983 8.2396-1.3446 8.9719-1.6538 8.1024-2.9721 18.585-3.5461 24.838-10.088 2.5815-2.7004 4.1073-6.3048 4.3497-10.025 0.13672-2.0945 0.1599-8.9334-3.5252-7.9267" fill="#C1DEE2"/>
            <path d="m94.394 85.601c11.929-3.1424 23.04 5.2156 24.446 17.239 1.484 12.689-8.0792 22.904-20.691 23.464-11.094 0.4925-24.517-7.4508-24.588-19.688-0.06674-11.468 10.908-18.405 20.833-21.015zm5.741 8.5534c-2.0402 1.1891-2.4142-1.8959-3.8584-2.3032-1.4502-0.40825-3.7805 1.1169-4.9883 2.0061-2.0509 1.5103-7.7321 10.301-10.486 5.5271-8.3559 14.429 12.476 25.227 24.322 19.767 13.01-5.997 10.478-27.922-4.917-28.036 0.64515 0.87714 1.2273 2.2769-0.072765 3.0392z" fill="#89C5CC"/>
            <path d="m89.289 102.78c0 2.6323 4.1569 2.6323 4.1569 0 0-2.6023-4.1569-2.7138-4.1569 0" fill="#89C5CC"/>
            <path d="m96.603 102.28c0 3.2244 5.0945 3.2244 5.0945 0 0-3.1878-5.0945-3.3239-5.0945 0" fill="#89C5CC"/>
            <path d="m91.369 109.8c-4.1661 2.4504 7.7478 7.3194 8.2183 2.344 0.203-2.1468-1.8761-1.5677-3.2619-1.7256-1.326-0.15136-3.6985-1.3507-4.9564-0.6184" fill="#89C5CC"/>
            <path d="m89.562 127.18c0.18122 6.2589 0.094084 12.514 1.281 18.686 0.22571 1.172 0.38236 5.4239 1.3088 6.2946 2.2789 2.1422 2.3164-1.9635 2.4049-3.5368 0.31609-5.6355-0.2753-11.446-0.406-17.093-0.028272-1.2155 0.29384-3.7331-0.27994-4.9097-0.91026-1.8677-4.3974-2.4222-4.3089 0.55915" fill="#C1DEE2"/>
            <path d="m85.106 122.11c-9.1331 10.251-21.71 9.4958-34.38 10.393-6.6944 0.47444-13.463 1.4483-18.85 5.7785-2.5055 2.0144-4.6658 4.5375-6.1173 7.4129-0.63449 1.2572-3.6443 8.5104 0.87596 6.7894 1.6031-0.61006 3.1813-5.4068 4.218-6.8255 1.9748-2.7022 4.5017-4.9328 7.5328-6.383 5.8471-2.7971 12.829-2.7495 19.169-3.1045 6.6272-0.37076 13.741-0.71745 19.832-3.5993 2.8656-1.3558 5.5542-3.0466 7.8605-5.2254 0.82405-0.77901 2.5913-2.1019 2.7229-3.2929 0.15063-1.3613-1.1577-3.8534-2.8633-1.9436" fill="#C1DEE2"/>
            <path d="m39 153.57c-8.5793 0.28652-17.147 0.63367-25.715 1.1762-1.7556 0.11109-7.6093-0.24347-6.1183 3.354 1.1948 2.8837 8.3337 0.9762 10.695 0.83641 8.9274-0.52999 17.891-0.71421 26.8-1.5173 2.0013-0.18006 11.047-0.10831 7.3117-3.6548-1.7769-1.6881-10.518-0.27819-12.973-0.19441" fill="#89C5CC"/>
            <path d="m1.7196 157.71c-2.7043 3.5516-1.4618 12.184-1.2574 16.453 0.1979 4.1376-0.60576 11.703 4.7951 12.344-1.7148-0.22496 1.3019 0.10415 1.7927 0.13053 1.0966 0.058785 2.1982 0.077763 3.2962 0.089797 2.5366 0.027773 5.0745-0.006017 7.6106-0.056933 5.7452-0.11479 11.505-0.28189 17.243-0.59942 2.4119-0.13377 15.496-0.022218 16.014-2.5277 0.66184-3.2017-11.883-1.3905-14.129-1.2882-5.4694 0.25088-10.947 0.30364-16.421 0.37539-2.7132 0.035641-5.4291 0.062487-8.1422 0.009257-1.1202-0.021755-5.557 0.43834-6.2378-0.3092-0.58073-0.63645-0.12745-6.4862-0.13997-7.3809-0.039858-2.917-0.036614-5.841 0.067203-8.7566 0.069984-1.963 1.1313-5.6979 0.2665-7.542-0.8412-1.7927-3.293-2.4046-4.758-0.94148" fill="#89C5CC"/>
            <path d="m45.895 157.87c0.15665 6.4973 0.20532 13.126 1.7399 19.48 0.51074 2.1149 1.2263 6.4756 3.3509 7.5703 2.2298 1.1493 4.155-0.49111 4.3005-2.7004 0.18353-2.7777-1.3037-6.4242-1.6087-9.2741-0.35641-3.3253-0.56358-6.6538-0.68547-9.9952-0.092231-2.5129 0.67157-6.2807-1.7241-7.9012-2.1519-1.4557-5.443 0.010183-5.373 2.8203" fill="#89C5CC"/>
            <path d="m62.968 156.29c-2.6682 2.6578-1.4757 11.073-1.142 14.488 0.24425 2.5014 2.982 14.806 7.0841 8.3895 1.8145-2.8383-0.49082-10.343-0.47459-13.653 0.01066-2.1079 0.75685-4.7731 0.39673-6.7982-0.47598-2.6763-3.444-4.8435-5.8643-2.4264" fill="#89C5CC"/>
            <path id="a" d="m125.73 178.25c0.58802 0.63626 0.84833 1.5423 0.46655 2.4291-0.91721 2.1292-4.2927 1.6696-6.1262 1.8223-6.1187 0.51008-12.266 0.8503-18.406 0.90399-5.9329 0.052304-11.868-0.09998-17.8-0.041658-4.9424 0.048601-10.091 1.0503-14.987 0.84937-2.0444-0.084242-4.2273-0.75355-3.7092-3.3956 0.4593-2.344 2.8179-2.3625 4.7408-2.5583 5.7925-0.5897 11.588-0.79845 17.41-0.77762 12.231 0.042584 24.452-0.020829 36.683-0.084705 0.50268 0.041417 0.97625 0.23358 1.3663 0.52638-0.63969-0.7764-0.33221-1.9265-0.45164-3.0489-0.32165-3.0258-0.52882-5.9997-1.1026-9.0251-0.45884-2.4199-0.80458-6.5302-3.0464-8.0526-2.448-1.6622-7.8827-1.1123-10.804-1.1877-7.8614-0.20274-15.768 0.35548-23.593 1.0669-3.5687 0.32447-7.1815 0.57165-10.71 1.2123-1.9647 0.35734-7.7293 3.2415-9.2986 1.4668-3.7787-4.2737 12.826-6.0284 15.08-6.2613 8.0143-0.82669 16.038-1.4469 24.097-1.5238 5.4421-0.042584 14.755-0.50638 18.756 3.9585 2.4031 2.681 3.2461 7.0977 4.1837 10.443 0.72023 2.5694 2.6738 7.2023 1.2857 9.8559-0.628 1.2007-1.6393 2.2246-3.1738 1.7992-0.35854-0.099342-0.63959-0.22643-0.85976-0.3764z" fill="#89C5CC"/>
            <path d="m166.71 144.36c0.34853 0.44806 0.34853 0.44806 0 0m-54.234-26.476c-4.8674 2.861 4.1416 11.256 6.4362 12.554 5.1644 2.9216 12.261 3.3623 18.027 4.1839 7.2978 1.0405 15.24 1.4233 22.254 3.815 2.9889 1.0192 4.8878 2.6092 6.8445 5.0532 0.99136 1.2382 3.3787 6.5755 5.5528 5.3119 4.3775-2.5444-7.4178-13.222-10.017-14.37-5.9083-2.6101-12.892-3.341-19.209-4.3542-5.874-0.94287-11.875-1.6437-17.604-3.3054-3.1502-0.91371-5.3892-2.3875-7.2051-5.2082-1.1318-1.758-2.0601-5.4466-5.0792-3.6803" fill="#C1DEE2"/>
            <path d="m138.59 179.7c-1.4557-2.7907-2.125-8.1523-2.2548-9.2112-0.55987-4.5621-0.60205-9.0704-0.52511-13.661 0.045117-2.5197 2.9295-3.7216 4.7986-2.3079 2.4995-1.0466 6.7287-1.2039 9.0013-1.4334 3.7346-0.37724 7.5008-0.51749 11.247-0.74152 8.7438-0.52258 17.478-1.4655 26.238-1.6599 2.6214-0.054619 6.1322-0.29115 8.2285 1.6437 2.3869 2.2033 2.8624 7.6689 3.5775 10.614 0.77678 3.198 1.7046 6.452 2.0295 9.7328 0.076144 0.7685 0.28157 2.0884 0.18913 3.276 1.0914 0.14866 1.7435 1.2067 1.633 2.3625-0.20439 2.1454-3.1766 2.4379-4.9156 2.7772-5.7827 1.1294-11.964 0.87251-17.827 1.0382-12.265 0.3453-25.381 2.3264-37.6 1.147-2.0913-0.20194-4.338-0.94074-3.8202-3.5763zm4.4153-2.5245c0.48583-0.003824 0.9657 0.005157 1.4131-0.002577 6.1688-0.10785 12.333-0.29485 18.498-0.53184 6.287-0.24116 12.574-0.51055 18.866-0.58276 5.0012-0.056866 10.151 0.37469 15.188 0.18026-1.0827-2.8348-0.91885-7.2974-1.4961-10.233-0.57331-2.9147-0.79114-6.3714-1.9633-9.1088-1.319-3.0795-2.4661-2.3671-5.9009-2.1338-3.5321 0.23977-7.0596 0.57674-10.588 0.86696-7.7562 0.63784-15.519 1.0415-23.281 1.5821-4.0258 0.28025-7.8779 1.4296-11.815 1.8803-0.059276 1.4053-0.25739 2.8234-0.23506 3.849 0.065813 3.0249 0.36382 6.0284 0.62661 9.0408 0.10682 1.2251 0.61265 3.3396 0.68807 5.1935z" fill="#89C5CC"/>
        </g>
    </g>
</svg>
