<svg version="1.1" viewBox="0 0 740 680" xmlns="http://www.w3.org/2000/svg">
    <g fill="none" fill-rule="evenodd">
        <path d="m690.23 195.33c-0.53343-0.38791-1.799-0.52546-2.3877-0.64167-2.4472-0.48244-4.9683-0.69249-7.4632-0.69249-7.6932 0.011519-15.511 0.76668-23.077 2.0737-4.8033 0.8297-10.61 3.622-15.388 2.1056-8.3244-2.6422-16.738-2.5125-24.635 1.2596-7.2207 3.4492-12.702 10-15.901 17.078-0.48263 1.0685-2.4406 5.0012-2.9949 7.6522-0.23697 0.54206-0.46454 1.0879-0.66984 1.6418-0.5825 1.5727-1.1048 3.1731-1.5902 4.7766-0.20739 0.68402-0.72899 2.1943-0.10961 2.4864-0.98962 1.8264-1.8668 3.7087-2.5976 5.652-2.125 5.6517-4.4484 11.851-5.1951 17.841-0.27663 2.2181-0.28707 4.449-0.030273 6.6714 0.12701 1.0984 0.074465 3.3073 0.81911 4.1424 1.5805 1.7722 2.3919-0.70875 2.2138-1.8904-1.3606-9.0064 1.2666-17.464 4.3802-25.93 2.0133-5.4745 5.3215-10.483 9.0273-15.019 2.9991-3.6715 6.2164-6.5627 10.328-8.9969 5.0274-2.9766 10.402-5.383 15.728-7.7969 3.5026-1.5882 7.0094-3.1338 10.61-4.5022 0.80067-0.30457 2.0603-1.0851 2.948-1.0882 1.8773-0.006776 4.5375 1.3785 6.3507 1.8938 5.9642 1.6956 12.005 3.8666 18.168 4.7326 3.9536 0.55595 7.6577-0.069791 11.355-1.387 0.37789-0.13416 1.0112-0.48006 1.7872-0.97402 2.7451-1.056 5.342-2.3851 7.6031-4.3023 1.3028-1.1048 2.4848-2.5325 3.5628-3.8392 0.32256-0.39062 0.46523-0.8385 0.4701-1.264 0.24427-0.12772 0.40642-0.27679 0.44296-0.45093 0.26898-1.286-2.1838-1.3098-3.7542-1.2332" fill="#89C5CC"/>
        <path id="x" transform="translate(111.68 319.4) rotate(-39) translate(-111.68 -319.4)" d="m86.226 277.1c-1.9421 0-3.8783 0.038809-5.818 0.13924-1.4785 0.076937-3.738-0.22809-4.9891 0.68903-1.2999 0.95252-1.2103 2.9025-1.0073 4.2795 1.0735 7.2821 3.6934 13.739 9.1742 18.899 8.439 7.9442 18.113 11.981 29.561 13.778 8.0416 1.2626 15.465-0.49056 21.385-6.1815 4.3252 7.9888 7.6065 16.829 9.253 25.752 0.81224 4.4028 1.0602 8.7524 0.91742 13.236-0.091951 2.8715-0.25112 5.7362-0.56042 8.5941-0.1341 1.2419-0.77044 3.1217-0.28178 4.2952 0.5733 1.3781 2.5067 1.5115 3.3747 0.33634 0.72238-0.97805 0.58967-2.8987 0.73805-4.0562 0.2459-1.9227 0.47369-3.8468 0.63669-5.7784 0.26471-3.1265 0.46045-6.2618 0.44617-9.4002-0.033088-7.0513-1.6085-14.13-3.7634-20.824-4.134-12.841-10.842-24.254-21.274-33.208-6.4143-5.5061-13.755-7.7359-22.084-8.9328-5.1855-0.7452-10.456-1.6167-15.709-1.6167" fill="#DDE3E9"/>
        <path transform="translate(90.124 221.44) rotate(-37) translate(-90.124 -221.44)" d="m130.49 308.72c-1.575-12.542-3.2423-25.012-6.2938-37.31-1.7986-7.247-4.1037-14.342-6.198-21.506 0.18773 0.89873 0.35387 1.8032 0.49807 2.7101-0.72864-2.1369-2.2504-4.1808-3.1256-6.3102-0.97629-2.3748-1.7614-4.8416-2.5071-7.2937-1.4559-4.7857-2.8296-9.5796-4.468-14.311-1.8258-5.2708-3.9281-10.454-5.8873-15.679-1.6628-4.4341-3.22-9.0894-5.3847-13.321-1.1797-2.3064-2.2375-4.7837-3.3956-7.1347-0.38766-0.78673-3.7139-9.5756-3.6889-9.5756 0.54997 0 2.6126 3.9068 2.9543 4.4807 0.99858 1.6763 1.847 3.4206 2.7046 5.1684 0.37024-2.0752 0.95643-4.1069 1.8798-6.0147 0.28491-0.58894 2.2849-4.9321 2.9362-4.9321 0.32531 0-2.6809 8.2016-3.0609 8.9216-0.30859 0.58486-0.88677 1.3263-1.0881 1.9486-0.32531 1.0049-0.15778 0.75371 0.11076 1.6603 0.49215 1.6616 1.5813 3.2889 2.2667 4.8845 0.37616 0.85175 1.3033 3.8039 2.2054 5.1262 2.3228 4.5403 3.9734 10.076 5.7417 14.972 0.38034-2.4055 1.0379-4.7248 1.9487-6.9883 0.21595-0.53754 1.9345-5.5251 2.4294-5.5251 0.55693 0-1.5757 7.9881-1.8655 8.6782-0.53812 1.2817-1.3841 2.5222-1.8317 3.8268-0.4911 1.4318 0.37164 2.7207 0.92126 4.1852 2.0219 5.388 3.7944 10.83 5.414 16.345 9.4059-4.1195 11.276-16.244 11.89-25.185 0.44199-6.444-0.55554-13.006-2.1194-19.257-2.087-8.3425-5.5982-16.397-9.3237-24.151-4.3409-9.0353-10.31-17.105-17.508-24.179-3.7644-3.6998-8.0517-6.9063-12.406-9.9109-2.1271-1.4679-4.3123-2.6863-6.7953-3.503-1.1194-0.36766-2.2685-0.63388-3.4301-0.83779-0.88259-0.1549-2.6833-0.97328-3.4151-0.7646-5.9754 1.6531-10.467 4.4028-13.949 9.5143-3.2967 4.8385-5.3429 10.623-6.4805 16.298-1.2664 6.319-1.5719 12.69-0.48483 19.05 0.8293 4.8521 2.2598 9.6089 3.6923 14.319 5.0949 16.753 14.025 34.713 30.05 43.903 5.1869 2.975 10.942 4.7139 16.85 5.6358 1.3922 0.21719 2.7829 0.42383 4.1918 0.50315 0.94982 0.053788 4.0723-0.57702 4.7595-0.16749 0.94215 0.56137 1.4834 3.7461 1.8941 4.9008 3.1201 8.7766 5.9103 17.653 8.4421 26.608 2.6934 9.5279 4.833 19.148 6.6153 28.876 0.7579 4.1376 1.4963 8.2683 2.125 12.428 0.14664 0.96784-0.004876 4.0119 0.93972 4.8668 0.59734 0.5406 1.4416 0.31898 1.7969-0.34281 0.61788-1.1506-0.3887-4.3275-0.54997-5.6116" fill="#C1DEE2"/>
        <path d="m680.98 231.66c-3.411-0.74516-7.1772-0.68812-10.652-0.62665-18.634 0.25339-36.931 9.0754-48.84 23.172-10.138 12-12.926 26.92-14.928 42.002-0.19857 1.4975-0.28372 2.9854-0.39574 4.486-0.02408 0.32204-0.060025 0.60924-0.098413 0.87971-0.78765 0.70418-1.2008 1.5251-0.73461 2.427-1.7351 3.7972-3.203 7.6906-4.4624 11.706-3.7069 11.82-7.4776 23.865-5.1548 36.294 0.54267-6.8399 1.6842-13.834 3.0494-20.562 0.078521-0.38624 0.16332-0.7694 0.25162-1.1512 0.009074-0.040297 0.017449-0.080594 0.026523-0.12055 0.48334-2.0603 1.1115-4.0587 1.8754-6.0258 0.008026-0.021515 0.015704-0.042688 0.02408-0.063861 0.10086-0.25886 0.20799-0.51635 0.31373-0.77384 0.21881-0.53308 0.44356-1.0651 0.68191-1.5945 0.080615-0.18031 0.15809-0.36233 0.23242-0.54572 1.1122-2.7259 1.5819-5.7973 2.5783-8.6178 0.23836-0.64134 0.48753-1.2803 0.74857-1.9158 0.015355-0.037224 0.03106-0.074448 0.046764-0.11167 0.70564-1.7102 1.4853-3.3996 2.3096-5.0713 0.44809-0.33672 0.6875-1.172 1.0738-1.9312 0.079917-0.14958 0.70459-1.1471 0.8906-1.7218 0.48543-0.93913 0.96912-1.8786 1.458-2.816-0.014657 0.005464-0.029314 0.010928-0.043971 0.016392 0.48927-0.9002 0.97994-1.7966 1.4668-2.6893 0.10714-0.19602 0.21532-0.39238 0.32316-0.58909 0.17484-0.31316 0.34968-0.62597 0.52417-0.9381 1.6322-2.9209 3.3628-5.7833 5.16-8.6103 0.64143-1.0088 2.1738-2.4554 2.4677-3.5882 0.010818-0.042347 0.013261-0.081278 0.019892-0.12192 3.8999-5.4773 8.3895-10.53 13.774-14.533-0.65085 0.70349-2.0342 3.0909-2.3999 3.5636-1.1192 1.4473-2.3343 2.7945-3.554 4.1581-2.1843 2.4428-4.3169 4.963-6.2119 7.6281-3.4654 4.8739-6.4551 10.003-9.2812 15.236-0.026871 0.030735-0.056186 0.059763-0.081661 0.091181-1.4204 1.7509-2.3144 4.3972-3.337 6.4001 4.0464-1.8742 8.5207-3.095 12.674-4.7592 4.1414-1.659 8.17-3.5065 12.059-5.6761 5.1695-2.8833 10.532-6.1388 15.416-9.8229 5.5973-3.472 10.301-8.251 14.453-13.266 4.9123-5.9336 9.4141-11.919 12.198-19.124 1.3677-3.5403 2.4436-7.232 3.0815-10.967 0.027918-0.1629 0.063514-0.33945 0.10225-0.52284 0.6526-1.2898 1.2361-2.6087 1.7257-3.958 0.77753-2.1398 2.6139-4.4938-0.83023-5.2458" fill="#69A1AC"/>
        <path transform="translate(96.343 264.05) scale(-1 1) rotate(58) translate(-96.343 -264.05)" d="m86.603 265.82c-0.41498-1.5193-0.66416-3.0902-0.54894-4.6798 0.029274-0.40179 0.36627-3.3202 0.69249-3.3202 0.7597 0-0.28665 7.5321-0.14356 8m-13.221 6.5739c0.046038 0.018458 0.8825 1.6262 1.1569 2.093 0.58291 0.99299 1.2045 1.9619 1.8431 2.907-1.1981-1.5572-2.273-3.0595-3-5m44.875-47.833c0.71164-0.60027 0.3223-2.0999-0.52178-1.2719-0.68146 0.67089-0.70176 0.60442-1.5584 0.56158-0.69561-0.034791-1.4356-0.2508-2.1346-0.33674-1.4828-0.18226-2.9574-0.25937-4.4493-0.15526-3.198 0.22276-6.3097 0.98453-9.271 2.1692-5.1678 2.0677-10.385 4.7471-14.496 8.4783-6.5369 5.9326-11.786 14.053-14.884 22.151-1.9186 5.0148-2.9515 10.048-1.2075 15.264 0.87132 2.6067 2.2505 5.0872 4.2522 7.0456 0.52338 0.51174 1.2131 0.9082 1.7029 1.4454 0.75302 0.82589 0.58052 0.56133 0.091057 1.7398-0.53459 1.2867-1.0644 2.575-1.5907 3.8652-1.3776 3.3781-2.7339 6.7943-3.7341 10.3-0.32952 1.1535-0.58293 2.3248-0.76664 3.5087-0.13939 0.89521-0.94849 4.3011-0.24433 5.2163 1.1715 1.5233 1.6705-0.81577 1.7082-1.616 0.032845-0.70101 0.093995-1.4036 0.18158-2.1004 0.22057-1.7546 0.61951-3.477 1.1378-5.1693 0.55996-1.8289 1.2462-3.6234 1.9282-5.412 0.63633-1.6679 1.3023-3.3249 1.9814-4.9764 0.37705-0.91754 0.75863-1.8333 1.1402-2.749 0.13031-0.31286 0.19734-0.96635 0.54234-0.69815 0.75409-1.9553 1.9819-3.8122 2.9998-5.6478 1.247-2.2482 2.5194-4.4916 3.9526-6.6336 1.0337-1.5448 2.1224-3.0572 3.3136-4.4924 0.69615-0.83861 1.4404-1.6269 2.231-2.3824 0.43446-0.41489 1.9178-2.1947 2.5162-2.1947-0.25715 0-1.4203 2.2604-1.6016 2.5273-0.72445 1.0681-1.5109 2.0856-2.3135 3.0992-1.4895 1.881-2.8716 3.8304-4.1219 5.8695 0.36076 0.21472 1.8609-0.77448 2.3082-0.96531 1.0032-0.42762 2.0345-0.79318 3.0911-1.0751 1.8612-0.49694 4.136-1.0629 5.9735-1.0629-0.54154 0-1.7984 0.88379-2.3621 1.124-0.90336 0.38452-1.8297 0.73528-2.7688 1.0281-0.86705 0.27028-1.7498 0.47643-2.6385 0.66622-0.88921 0.18953-2.4959 0.1968-3.305 0.67037-0.048866 0.02856 0.0018692 0.48707-0.18959 0.60988-0.1928 0.12384-0.74501 0.083342-0.78988 0.11735-0.6625 0.49746-1.1258 1.9389-1.5245 2.648-1.0345 1.8385-2.0422 3.6912-3.0599 5.5385-0.31536 0.57223-0.73487 0.96376-0.45742 1.4277 0.29614 0.4946 1.6951 0.80149 2.2417 0.98167 2.0297 0.66959 4.0864 0.89132 6.2026 0.53978 3.9638-0.65791 7.4042-2.3736 10.506-4.8022 11.881-9.3021 21.625-21.007 24.6-35.87 1.2313-6.153 2.5579-15.749-4.6111-18.981" fill="#89C5CC"/>
        <g transform="translate(39 358)" fill="#DDE3E9" opacity=".6">
            <path d="m661.71 146.15c9.6498 65.324-224.37 107.93-425.8 78.197-201.43-29.735-293.84-145.86-197.72-207.73 96.119-61.874 613.87 64.209 623.52 129.53z"/>
        </g>
        <g id="f" transform="translate(138 76)">
            <rect id="Container" width="159" height="302" rx="8" fill="#F2F2F2"/>
            <circle id="v" cx="79" cy="268" r="15" fill="#fff"/>
            <g id="g" transform="translate(64 16)" fill="#fff">
                <circle id="w" cx="2" cy="2" r="2"/>
                <rect id="e" x="9" width="21" height="4" rx="2"/>
            </g>
            <g id="Rows" transform="translate(14 28)">
                <g id="Row">
                    <rect id="Background" width="131" height="54" rx="4" fill="#fff"/>
                    <g id="Text" transform="translate(39 16.2)" fill="#DDE3E9">
                        <rect id="Name" width="73" height="8.1" rx="3"/>
                        <rect id="Name" y="13.5" width="49" height="8.1" rx="3"/>
                    </g>
                    <circle id="Avatar" cx="21" cy="27" r="12" fill="#C5CFD6"/>
                </g>
                <g id="Row" transform="translate(0 62)">
                    <rect id="Background" width="131" height="42" rx="4" fill="#fff"/>
                    <g id="Text" transform="translate(39 12.6)" fill="#DDE3E9">
                        <rect id="Name" width="73" height="6.3" rx="3"/>
                        <rect id="Name" y="10.5" width="49" height="6.3" rx="3"/>
                    </g>
                    <circle id="Avatar" cx="21" cy="21" r="12" fill="#C5CFD6"/>
                </g>
                <g id="Row" transform="translate(0 112)">
                    <rect id="Background" width="131" height="42" rx="4" fill="#fff"/>
                    <g id="Text" transform="translate(39 12.6)" fill="#DDE3E9">
                        <rect id="Name" width="73" height="6.3" rx="3"/>
                        <rect id="Name" y="10.5" width="49" height="6.3" rx="3"/>
                    </g>
                    <circle id="Avatar" cx="21" cy="21" r="12" fill="#AFB9C5"/>
                </g>
                <g id="Row" transform="translate(0 162)">
                    <rect id="Background" width="131" height="42" rx="4" fill="#fff"/>
                    <g id="Text" transform="translate(39 12.6)" fill="#DDE3E9">
                        <rect id="Name" width="73" height="6.3" rx="3"/>
                        <rect id="Name" y="10.5" width="49" height="6.3" rx="3"/>
                    </g>
                    <circle id="Avatar" cx="21" cy="21" r="12" fill="#C5CFD6"/>
                </g>
            </g>
        </g>
        <g transform="translate(156 102)">
            <g transform="translate(0 218)" fill="#89C5CC">
                <path d="m12.14 0c-1.3248 0-2.6456 0.026602-3.9688 0.095441-1.0086 0.052738-2.5499-0.15635-3.4033 0.47231-0.8867 0.65292-0.82564 1.9896-0.68712 2.9335 0.73227 4.9917 2.5194 9.4179 6.2582 12.954 5.7567 5.4455 12.356 8.2124 20.165 9.4445 5.4856 0.86551 10.55-0.33626 14.588-4.2372 2.9504 5.4761 5.1888 11.536 6.3119 17.652 0.55407 3.018 0.72324 5.9995 0.62582 9.0725-0.062725 1.9683-0.17131 3.932-0.38229 5.891-0.091474 0.85127-0.52556 2.1398-0.19221 2.9442 0.39108 0.94461 1.71 1.0361 2.3021 0.23055 0.49277-0.67042 0.40225-1.987 0.50346-2.7804 0.16774-1.318 0.32313-2.6369 0.43432-3.9609 0.18057-2.1431 0.3141-4.2923 0.30436-6.4436-0.022572-4.8334-1.0972-9.6858-2.5672-14.274-2.82-8.8023-7.3956-16.625-14.512-22.763-4.3755-3.7743-9.3833-5.3027-15.065-6.1232-3.5373-0.51081-7.1323-1.1082-10.716-1.1082"/>
                <path d="m32.571 35c-14.299 0-23.929 11.524-28.483 23.502-1.7164 4.5147-2.1187 9.4723-2.7803 14.213-0.21239 1.5213-0.13371 3.8395-0.75121 5.1948-0.2241 0.49148-0.73786 0.66819-0.49222 1.3377 0.1487 0.40551 0.44047 0.65386 0.87859 0.73438 0.89943 0.16557 2.1712-0.81398 2.9423-1.2006 6.396-3.2077 10.598-8.1675 14.027-14.236 2.1251-3.7613 4.2813-7.6658 5.5437-11.795 0.77111-2.5224 1.22-5.1791 1.4837-7.7959 0.10374-1.0305 0.20419-2.0855 0.1981-3.1224-0.0060883-1.0287-0.48472-1.5725-0.82871-2.4679 4.7711-1.806 10.156-2.2982 14.989-0.42666 4.47 1.731 8.1832 5.076 10.262 9.2785 0.54022 1.0924 0.9568 2.2447 1.2603 3.4201 0.19857 0.76985 0.20817 1.7687 0.57628 2.4647 0.89264 1.6873 2.7707 0.55925 2.5903-1.0114-0.50276-4.3815-3.0093-8.7802-6.2129-11.826-4.0405-3.8418-9.5175-6.2625-15.204-6.2625"/>
            </g>
            <rect id="Container" x="48" width="159" height="302" rx="8" fill="#DDE3E9"/>
            <circle cx="127" cy="268" r="15" fill="#fff"/>
            <g transform="translate(112 16)" fill="#fff">
                <circle cx="2" cy="2" r="2"/>
                <rect x="9" width="21" height="4" rx="2"/>
            </g>
            <g id="Rows" transform="translate(62 28)">
                <g id="Row">
                    <rect id="Container" width="131" height="54" rx="4" fill="#fff"/>
                    <g id="Text-Stuff" transform="translate(9 16.2)" fill="#DDE3E9">
                        <rect id="Label" width="73" height="8.1" rx="3"/>
                        <rect id="Label" y="13.5" width="49" height="8.1" rx="3"/>
                    </g>
                    <g id="Check" transform="translate(110 20)">
                        <circle id="Background" cx="7" cy="7" r="7" fill="#DDE3E9"/>
                        <circle id="Indicator" cx="7" cy="7" r="3" fill="#F2F2F2"/>
                    </g>
                </g>
                <g id="Row" transform="translate(0 62)">
                    <rect id="Background" width="131" height="42" rx="4" fill="#fff"/>
                    <g id="m" transform="translate(39 12.6)" fill="#DDE3E9">
                        <rect id="Name" width="73" height="6.3" rx="3"/>
                        <rect id="Name" y="10.5" width="49" height="6.3" rx="3"/>
                    </g>
                    <circle id="Avatar" cx="21" cy="21" r="12" fill="#C5CFD6"/>
                </g>
                <g id="Row" transform="translate(0 112)">
                    <rect id="Container" width="131" height="42" rx="4" fill="#fff"/>
                    <g id="Text-Stuff" transform="translate(9 12.6)">
                        <rect id="Label" width="73" height="6.3" rx="3" fill="#DDE3E9"/>
                        <rect id="Label" y="10.5" width="49" height="6.3" rx="3" fill="#AFB9C5"/>
                    </g>
                    <g id="Check" transform="translate(110 14)">
                        <circle id="Background" cx="7" cy="7" r="7" fill="#DDE3E9"/>
                        <circle id="Indicator" cx="7" cy="7" r="3" fill="#F2F2F2"/>
                    </g>
                </g>
                <g id="Row" transform="translate(0 162)">
                    <rect id="Background" width="131" height="42" rx="4" fill="#fff"/>
                    <g transform="translate(39 12.6)" fill="#DDE3E9">
                        <rect id="Name" width="73" height="6.3" rx="3"/>
                        <rect id="Name" y="10.5" width="49" height="6.3" rx="3"/>
                    </g>
                    <circle id="ah" cx="21" cy="21" r="12" fill="#C5CFD6"/>
                </g>
            </g>
        </g>
        <g transform="translate(270 127)">
            <rect id="Container" width="335" height="346" rx="8" fill="#F2F2F2"/>
            <rect id="Background" x="249" y="43" width="70" height="81" rx="8" fill="#fff"/>
            <g transform="translate(259 58)" fill="#DDE3E9">
                <circle cx="25" cy="16" r="16"/>
                <rect id="l" y="36" width="50" height="6" rx="3"/>
                <rect x="8" y="46" width="34" height="6" rx="3"/>
            </g>
            <path d="m8 0h319c4.4183-8.1162e-16 8 3.5817 8 8v19h-335v-19c-5.4108e-16 -4.4183 3.5817-8 8-8z" fill="#C5CFD6"/>
            <g transform="translate(9 10)" fill="#F2F2F2">
                <circle id="buttons" cx="4" cy="4" r="4"/>
                <circle id="d" cx="16" cy="4" r="4"/>
                <circle cx="28" cy="4" r="4"/>
            </g>
            <g transform="translate(249 132)">
                <rect id="Background" width="70" height="194" rx="8" fill="#fff"/>
                <g id="u" transform="translate(18 18)">
                    <rect id="Data" width="34" height="26" rx="4" fill="#DDE3E9"/>
                    <rect id="Data" y="34" width="34" height="25" rx="4" fill="#AFB9C5"/>
                    <rect id="Data" y="67" width="34" height="25" rx="4" fill="#DDE3E9"/>
                    <rect id="j" y="133" width="34" height="25" rx="4" fill="#DDE3E9"/>
                    <rect y="100" width="34" height="25" rx="4" fill="#C5CFD6"/>
                </g>
            </g>
            <g transform="translate(16 44)">
                <g id="Row">
                    <rect id="Container" width="225" height="47" rx="4" fill="#fff"/>
                    <g id="Text-Stuff" transform="translate(9 14.1)" fill="#DDE3E9">
                        <rect id="Label" width="167" height="7.05" rx="3"/>
                        <rect id="Label" y="11.75" width="112.1" height="7.05" rx="3"/>
                    </g>
                    <g id="Check" transform="translate(193.95 16.5)">
                        <circle id="Background" cx="7" cy="7" r="7" fill="#DDE3E9"/>
                        <circle id="Indicator" cx="7" cy="7" r="3" fill="#F2F2F2"/>
                    </g>
                </g>
                <g id="Row" transform="translate(0 55)">
                    <rect id="Container" width="225" height="39" rx="4" fill="#fff"/>
                    <g id="Text-Stuff" transform="translate(9 11.7)" fill="#DDE3E9">
                        <rect id="Label" width="167" height="5.85" rx="2.925"/>
                        <rect id="Label" y="9.75" width="112.1" height="5.85" rx="2.925"/>
                    </g>
                    <g id="Check" transform="translate(193.95 12.5)">
                        <circle id="Background" cx="7" cy="7" r="7" fill="#DDE3E9"/>
                        <circle id="Indicator" cx="7" cy="7" r="3" fill="#F2F2F2"/>
                    </g>
                </g>
                <g id="Row" transform="translate(0 102)">
                    <rect id="Container" width="225" height="39" rx="4" fill="#fff"/>
                    <g id="Text-Stuff" transform="translate(9 11.7)" fill="#DDE3E9">
                        <rect id="Label" width="167" height="5.85" rx="2.925"/>
                        <rect id="Label" y="9.75" width="112.1" height="5.85" rx="2.925"/>
                    </g>
                    <g id="Check" transform="translate(193.95 12.5)">
                        <circle id="Background" cx="7" cy="7" r="7" fill="#DDE3E9"/>
                        <circle id="Indicator" cx="7" cy="7" r="3" fill="#AFB9C5"/>
                    </g>
                </g>
                <g id="Row" transform="translate(0 243)">
                    <rect id="Container" width="225" height="39" rx="4" fill="#fff"/>
                    <g id="Text-Stuff" transform="translate(9 11.7)" fill="#DDE3E9">
                        <rect id="Label" width="167" height="5.85" rx="2.925"/>
                        <rect id="Label" y="9.75" width="112.1" height="5.85" rx="2.925"/>
                    </g>
                    <g id="Check" transform="translate(193.95 12.5)">
                        <circle id="Background" cx="7" cy="7" r="7" fill="#DDE3E9"/>
                        <circle id="Indicator" cx="7" cy="7" r="3" fill="#F2F2F2"/>
                    </g>
                </g>
                <g id="b" transform="translate(0 196)">
                    <rect id="a" width="225" height="39" rx="4" fill="#fff"/>
                    <g id="s" transform="translate(9 11.7)" fill="#DDE3E9">
                        <rect id="Label" width="167" height="5.85" rx="2.925"/>
                        <rect id="Label" y="9.75" width="112.1" height="5.85" rx="2.925"/>
                    </g>
                    <g id="k" transform="translate(193.95 12.5)">
                        <circle id="y" cx="7" cy="7" r="7" fill="#DDE3E9"/>
                        <circle id="r" cx="7" cy="7" r="3" fill="#F2F2F2"/>
                    </g>
                </g>
                <g transform="translate(0 149)">
                    <rect width="225" height="39" rx="4" fill="#fff"/>
                    <g transform="translate(9 11.7)" fill="#DDE3E9">
                        <rect id="af" width="167" height="5.85" rx="2.925"/>
                        <rect y="9.75" width="112.1" height="5.85" rx="2.925"/>
                    </g>
                    <g transform="translate(193.95 12.5)">
                        <circle cx="7" cy="7" r="7" fill="#DDE3E9"/>
                        <circle cx="7" cy="7" r="3" fill="#F2F2F2"/>
                    </g>
                </g>
            </g>
        </g>
        <path d="m687.99 297.38c-3.9443-2.6746-9.1895-3.3755-13.91-3.3755-18.436 0-35.765 6.84-50.735 17.032-8.2029 5.5845-15.541 12.696-22.019 20.101-3.7394 4.2742-7.0737 8.8981-9.4343 14.041-1.5929 3.471-2.6863 7.0875-3.4274 10.818-0.90318 4.5461-1.6206 9.1844-1.9452 13.806-0.12776 1.82-1.1853 11.477 1.8407 11.641-0.017355 0.23807-0.021417 0.46498-0.002954 0.66848-6.5704 10.274-10.63 22.314-14.394 33.729-3.2752 9.9336-6.1938 19.951-8.0884 30.228-2.4943 13.53-4.1326 27.263-4.9118 40.987-0.16727 2.9495-0.28211 5.9004-0.38106 8.8538-0.083819 2.5191-0.16875 5.0381-0.25146 7.5572-0.092312 2.823-0.58932 6.0732-0.14032 8.8797 0.39067 2.4441 2.5061 2.0742 2.5995-0.35801 0.11299-2.9372 0.094528-5.8802 0.22303-8.8196 0.17096-3.901 0.34709-7.8021 0.538-11.702 1.3289-27.092 6.3145-53.785 15.515-79.376 3.7235-10.356 7.9902-20.16 13.474-29.739 4.8213-8.423 10.621-16.577 16.549-24.172 5.7618-7.3803 11.752-14.59 18.812-20.843 5.7289-5.0741 12.03-9.4945 18.508-13.608 8.2276-5.224 16.439-10.321 25.352-14.331 4.6326-2.0843 9.3527-3.9504 14.021-5.9504 0.84004-0.35981 1.7406-0.70882 2.5486-1.1255 2.6951-1.3899 1.8078-3.4832-0.33971-4.9394" fill="#C1DEE2"/>
        <path transform="translate(621 422) scale(-1 1) translate(-621 -422)" d="m628.18 392c-7.4773 0-14.131 0.97159-21.02 3.9431-5.947 2.5646-11.367 5.9597-16.629 9.656-7.4016 5.1986-13.232 11.249-17.312 19.266-2.438 4.7893-4.2264 11.566-2.5891 16.79 1.9287 6.1525 7.2244 11.284 14.199 10.2 4.3129-0.66971 8.2666-3.5246 11.545-6.2116 3.9214-3.2146 7.0604-7.0799 9.6523-11.373 4.2281-7.0027 6.7127-14.919 10.304-22.237 1.7043-3.473 3.3513-6.9707 5.3926-10.271 1.0106-1.6345 2.0864-3.2534 3.6195-4.468 0.8202-0.64965 4.2785-1.7742 2.956-3.2333 19.39 0.25462 36.568 15.147 40.291 33.58 0.3467 1.7181 0.61766 3.4502 0.90392 5.1788 0.18064 1.0916 0.10769 5.117 1.0835 5.8142 2.1521 1.5383 1.2475-3.1347 1.1551-3.8075-0.23866-1.7389-0.4933-3.4764-0.76044-5.2108-1.4535-9.434-5.6535-18.204-12.658-24.932-8.0095-7.6935-18.816-12.683-30.133-12.683" fill="#89C5CC"/>
        <g transform="translate(65 333)">
            <path d="m9.9379 35.736c18.666 31.315 40.407 61.637 53.463 95.876-0.52612-4.0357-1.084-8.0673-1.7084-12.093-3.3128-21.341-7.43-42.526-11.757-63.685-2.2033-10.773-4.5336-21.507-6.9236-32.241-1.2854-5.7648-2.5551-11.533-3.867-17.292-0.31778-1.3959-0.59081-3.8324-0.98865-6.3018 12.688 41.637 24.924 83.305 33.874 125.94 1.1741 5.5957 2.174 11.182 2.993 16.758 0.28018-1.272 0.55576-2.5443 0.85739-3.8128 3.6214-15.207 9.0535-30.294 15.521-44.513 3.0921-6.7999 6.6437-13.451 10.825-19.648 2.6077-3.8631 8.7574-8.4552 11.136-12.412-13.01 23.861-17.707 53.717-25.219 79.659-1.8335 6.3305-3.6784 12.651-5.486 18.982 11.328-22.718 28.904-41.384 53.341-49.473-29.58 19.544-47.322 53.771-59.278 88.777-0.039396 0.41515-0.086235 0.8303-0.12672 1.2461 3.5182-6.677 7.9498-12.716 13.956-16.946 12.855-9.0551 27.116-6.4172 39.586 1.3502-9.7868-6.2212-27.474-0.5562-35.709 5.7668-5.8951 4.5263-10.933 10.599-15.308 16.523-1.0483 1.4201-2.4785 3.077-3.9894 4.8449-2.1184 13.751-5.5705 27.407-10.458 40.956 0.80656-3.8887 0.2234-10.108 0.44707-13.007 0.024346-0.31382 0.044094-0.62785 0.068222-0.9408-0.74292 2.9663-1.4607 5.8989-2.1518 8.7843 1.3738-5.5059 2.1204-11.254 2.7033-17.061 0.15011-2.4956 0.29651-4.9913 0.45122-7.4867-0.049034-4.7361-0.2441-9.4909-0.57403-14.253-1.1699-4.6285-2.4797-8.9943-3.5599-12.625-3.898-13.101-9.6123-25.652-16.646-37.36-6.4171-10.685-14.098-20.363-22.966-29.116-4.7804-4.7172-9.7834-9.2099-14.716-13.765-1.7836-1.6467-4.9717-5.6957-7.7289-7.8063 20.08 11.071 40.749 23.047 55.398 40.884-1.7174-6.595-3.5827-13.097-5.5559-19.468-10.011-32.325-22.65-65.827-39.904-95.043z" fill="#DDE3E9"/>
            <path d="m30 213c0 35.899 2.8428 65 41 65 38.157 0 41-29.101 41-65" fill="#C5CFD6"/>
        </g>
        <g transform="translate(520 52)">
            <rect id="Value" y="32" width="6" height="25" rx="3" fill="#DDE3E9"/>
            <rect id="Value" x="14" y="16" width="6" height="41" rx="3" fill="#DDE3E9"/>
            <rect id="Value" x="28" y="8" width="6" height="49" rx="3" fill="#DDE3E9"/>
            <rect id="Value" x="42" y="16" width="6" height="41" rx="3" fill="#DDE3E9"/>
            <rect id="Value" x="56" width="6" height="57" rx="3" fill="#C5CFD6"/>
        </g>
        <g transform="translate(48 358) scale(-1 1) translate(-20 -20)">
            <path id="Value" d="m40 20.256c0-11.139-9.002-20.256-20-20.256v20.256l13.668 14.744c3.888-3.6046 6.332-8.8926 6.332-14.744z" fill="#F2F2F2"/>
            <path id="Value" d="m20.529 20h-20.197c0 5.221 2.1298 10.113 5.4967 13.668 3.7032 3.888 8.9767 6.332 14.701 6.332 5.2725 0 10.099-2.109 13.803-5.443l-13.803-14.557z" fill="#AFB9C5"/>
            <path id="Value" d="m0 20c0-10.998 9.002-20 20-20v20h-20zm30-20-8 18 18-8c-1.78-4.666-5.777-8.22-10-10z" fill="#C5CFD6"/>
        </g>
        <g id="c" transform="translate(641 330)">
            <path id="Value" d="m37.766 37.179c-1.9216 2.04-4.6437 3.321-7.6713 3.321-5.8174 0-10.533-4.701-10.533-10.5s4.7159-10.5 10.533-10.5v-19.5c-16.549 0-30.095 13.503-30.095 30s13.546 30 30.095 30c8.693 0 16.549-3.666 21.905-9.498l-14.234-13.323z" fill="#F2F2F2"/>
            <path id="Value" d="m30 0v19.5c5.799 0 10.5 4.701 10.5 10.5h19.5c0-16.497-13.503-30-30-30z" fill="#AFB9C5"/>
            <path id="Value" d="m40.097 30c0 3.407-1.6045 6.4354-4.097 8.3908l12.262 15.609c7.1375-5.5882 11.738-14.251 11.738-24h-19.903z" fill="#C5CFD6"/>
        </g>
        <g transform="translate(459 63)">
            <path id="Value" d="m29.051 28.504c-1.4781 1.564-3.5721 2.5461-5.901 2.5461-4.4749 0-8.1026-3.6041-8.1026-8.05s3.6276-8.05 8.1026-8.05v-14.95c-12.73 0-23.15 10.352-23.15 23s10.42 23 23.15 23c6.6869 0 12.73-2.8106 16.85-7.2818l-10.949-10.214z" fill="#F2F2F2"/>
            <path id="p" d="m23 0v14.95c4.4459 0 8.05 3.6041 8.05 8.05h14.95c0-12.648-10.352-23-23-23z" fill="#AFB9C5"/>
            <path d="m31.073 23c0 2.5552-1.2034 4.8266-3.0727 6.2931l9.1964 11.707c5.3532-4.1912 8.8036-10.688 8.8036-18h-14.927z" fill="#C5CFD6"/>
        </g>
        <g id="aa" transform="translate(76 57)">
            <path id="h" d="m48.007 51.986c-4e-3 0.01-8e-3 0.02-0.014 0.032 6e-3 -0.01 0.014-0.05 0.014-0.032" fill="#C5CFD6"/>
            <path id="n" d="m47.998 52.001c0 2e-3 -2e-3 6e-3 -2e-3 0.01 0-0.01 0.018-0.04 2e-3 -0.01" fill="#C5CFD6"/>
            <path id="ac" d="m48.067 51.832c-0.014 0.04-0.032 0.078-0.048 0.118 8e-3 -0.02 0.016-0.036 0.024-0.056-0.208 0.52-0.076 0.182 0.024-0.062" fill="#C5CFD6"/>
            <path id="z" d="m48.022 51.953c-8e-3 0.018-0.016 0.038-0.024 0.056-0.058 0.112 0.024-0.056 0.024-0.056" fill="#C5CFD6"/>
            <polygon id="ae" points="48 52.001 48 52.001 48 51.999" fill="#C5CFD6"/>
            <path id="o" d="m47.999 52.002c0-2e-3 0-2e-3 2e-3 -4e-3 -2e-3 2e-3 -2e-3 2e-3 -2e-3 4e-3" fill="#C5CFD6"/>
            <path id="i" d="m47.99 52.016c-0.012 0.024 0.056-0.092 0 0" fill="#C5CFD6"/>
            <path id="q" d="m47.998 52.002 4e-3 -4e-3c-2e-3 2e-3 -2e-3 4e-3 -4e-3 4e-3" fill="#C5CFD6"/>
            <rect id="t" width="95" height="63" rx="4" fill="#DDE3E9"/>
            <g id="ad" transform="translate(8 18)">
                <polygon id="Mountains" points="28 0 0 45 56 45" fill="#AFB9C5"/>
                <polygon id="Mountains" points="55.5 12 31 45 80 45" fill="#C5CFD6"/>
            </g>
            <circle id="ab" cx="74" cy="21" r="9" fill="#fff"/>
        </g>
        <g transform="translate(601 506) scale(-1 1) translate(-71 -47)">
            <path d="m71.007 76.986c-4e-3 0.01-8e-3 0.02-0.014 0.032 6e-3 -0.01 0.014-0.05 0.014-0.032" fill="#C5CFD6"/>
            <path d="m70.998 77.001c0 2e-3 -2e-3 6e-3 -2e-3 0.01 0-0.01 0.018-0.04 2e-3 -0.01" fill="#C5CFD6"/>
            <path d="m71.067 76.832c-0.014 0.04-0.032 0.078-0.048 0.118 8e-3 -0.02 0.016-0.036 0.024-0.056-0.208 0.52-0.076 0.182 0.024-0.062" fill="#C5CFD6"/>
            <path d="m71.022 76.953c-8e-3 0.018-0.016 0.038-0.024 0.056-0.058 0.112 0.024-0.056 0.024-0.056" fill="#C5CFD6"/>
            <polygon points="71 77.001 71 77.001 71 76.999" fill="#C5CFD6"/>
            <path d="m70.999 77.002c0-2e-3 0-2e-3 2e-3 -4e-3 -2e-3 2e-3 -2e-3 2e-3 -2e-3 4e-3" fill="#C5CFD6"/>
            <path d="m70.99 77.016c-0.012 0.024 0.056-0.092 0 0" fill="#C5CFD6"/>
            <path d="m70.998 77.002 4e-3 -4e-3c-2e-3 2e-3 -2e-3 4e-3 -4e-3 4e-3" fill="#C5CFD6"/>
            <rect width="142" height="94" rx="4" fill="#DDE3E9"/>
            <g transform="translate(11 27)">
                <polygon id="ag" points="41.726 0 0.67079 67 82.781 67" fill="#AFB9C5"/>
                <polygon points="84.056 17.946 47.761 67 120.35 67" fill="#C5CFD6"/>
            </g>
            <circle cx="110.5" cy="31.5" r="13.5" fill="#fff"/>
        </g>
    </g>
</svg>
